solid gehäuse meerie light
facet normal 0.7933533402912326 0.6087614290087243 0.0
  outer loop
    vertex 6.490202292730271 -39.59981310358465 2.0124683734609414
    vertex 6.728580226627108 -39.910473275364474 17.012468373460944
    vertex 6.728580226627108 -39.910473275364474 2.0124683734609414
  endloop
endfacet
facet normal 0.7933533402912326 0.6087614290087243 0.0
  outer loop
    vertex 6.728580226627108 -39.910473275364474 17.012468373460944
    vertex 6.490202292730271 -39.59981310358465 2.0124683734609414
    vertex 6.490202292730271 -39.59981310358465 17.012468373460944
  endloop
endfacet
facet normal 0.9914448613738104 -0.13052619222005263 0.0
  outer loop
    vertex 6.929542120950451 -40.660473275364474 2.0124683734609414
    vertex 6.878430860384054 -41.04870184301825 17.012468373460944
    vertex 6.878430860384054 -41.04870184301825 2.0124683734609414
  endloop
endfacet
facet normal 0.9914448613738104 -0.13052619222005263 0.0
  outer loop
    vertex 6.878430860384054 -41.04870184301825 17.012468373460944
    vertex 6.929542120950451 -40.660473275364474 2.0124683734609414
    vertex 6.929542120950451 -40.660473275364474 17.012468373460944
  endloop
endfacet
facet normal 0.0 1.0 0.0
  outer loop
    vertex 132.92954212095046 -93.1604732753645 12.012468373460939
    vertex 137.92954212095046 -93.1604732753645 2.012468373460942
    vertex 132.92954212095046 -93.1604732753645 2.012468373460942
  endloop
endfacet
facet normal 0.0 1.0 0.0
  outer loop
    vertex 137.92954212095046 -93.1604732753645 2.012468373460942
    vertex 132.92954212095046 -93.1604732753645 12.012468373460939
    vertex 137.92954212095046 -93.1604732753645 12.012468373460939
  endloop
endfacet
facet normal 0.9914448613738105 0.13052619222005074 0.0
  outer loop
    vertex 6.878430860384054 -40.27224470771068 2.0124683734609414
    vertex 6.929542120950451 -40.660473275364474 17.012468373460944
    vertex 6.929542120950451 -40.660473275364474 2.0124683734609414
  endloop
endfacet
facet normal 0.9914448613738105 0.13052619222005074 0.0
  outer loop
    vertex 6.929542120950451 -40.660473275364474 17.012468373460944
    vertex 6.878430860384054 -40.27224470771068 2.0124683734609414
    vertex 6.878430860384054 -40.27224470771068 17.012468373460944
  endloop
endfacet
facet normal 0.0 0.0 1.0
  outer loop
    vertex 3.9806533815168432 -41.048701843018264 2.0124683734609414
    vertex 3.9806533815168432 -40.27224470771068 2.0124683734609414
    vertex 3.9295421209504457 -40.660473275364474 2.0124683734609414
  endloop
endfacet
facet normal 0.0 0.0 1.0
  outer loop
    vertex 3.9806533815168432 -40.27224470771068 2.0124683734609414
    vertex 3.9806533815168432 -41.048701843018264 2.0124683734609414
    vertex 4.130504015273789 -41.41047327536447 2.0124683734609414
  endloop
endfacet
facet normal 0.0 0.0 1.0
  outer loop
    vertex 3.9806533815168432 -40.27224470771068 2.0124683734609414
    vertex 4.130504015273789 -41.41047327536447 2.0124683734609414
    vertex 4.130504015273789 -39.910473275364474 2.0124683734609414
  endloop
endfacet
facet normal 0.0 0.0 1.0
  outer loop
    vertex 4.130504015273789 -39.910473275364474 2.0124683734609414
    vertex 4.130504015273789 -41.41047327536447 2.0124683734609414
    vertex 4.368881949170625 -41.7211334471443 2.0124683734609414
  endloop
endfacet
facet normal 0.0 0.0 1.0
  outer loop
    vertex 4.130504015273789 -39.910473275364474 2.0124683734609414
    vertex 4.368881949170625 -41.7211334471443 2.0124683734609414
    vertex 4.368881949170625 -39.59981310358465 2.0124683734609414
  endloop
endfacet
facet normal 0.0 0.0 1.0
  outer loop
    vertex 4.368881949170625 -39.59981310358465 2.0124683734609414
    vertex 4.368881949170625 -41.7211334471443 2.0124683734609414
    vertex 4.679542120950447 -41.95951138104113 2.0124683734609414
  endloop
endfacet
facet normal 0.0 0.0 1.0
  outer loop
    vertex 4.368881949170625 -39.59981310358465 2.0124683734609414
    vertex 4.679542120950447 -41.95951138104113 2.0124683734609414
    vertex 4.679542120950447 -39.36143516968781 2.0124683734609414
  endloop
endfacet
facet normal 0.0 0.0 1.0
  outer loop
    vertex 4.679542120950447 -39.36143516968781 2.0124683734609414
    vertex 4.679542120950447 -41.95951138104113 2.0124683734609414
    vertex 5.041313553296666 -39.21158453593087 2.0124683734609414
  endloop
endfacet
facet normal 0.0 0.0 1.0
  outer loop
    vertex 5.041313553296666 -39.21158453593087 2.0124683734609414
    vertex 4.679542120950447 -41.95951138104113 2.0124683734609414
    vertex 5.041313553296666 -42.10936201479807 2.0124683734609414
  endloop
endfacet
facet normal 0.0 0.0 1.0
  outer loop
    vertex 5.041313553296666 -39.21158453593087 2.0124683734609414
    vertex 5.041313553296666 -42.10936201479807 2.0124683734609414
    vertex 5.429542120950448 -42.16047327536448 2.0124683734609414
  endloop
endfacet
facet normal 0.0 0.0 1.0
  outer loop
    vertex 5.041313553296666 -39.21158453593087 2.0124683734609414
    vertex 5.429542120950448 -42.16047327536448 2.0124683734609414
    vertex 5.429542120950448 -39.16047327536446 2.0124683734609414
  endloop
endfacet
facet normal 0.0 0.0 1.0
  outer loop
    vertex 5.429542120950448 -39.16047327536446 2.0124683734609414
    vertex 5.429542120950448 -42.16047327536448 2.0124683734609414
    vertex 5.817770688604231 -42.10936201479807 2.0124683734609414
  endloop
endfacet
facet normal 0.0 0.0 1.0
  outer loop
    vertex 5.429542120950448 -39.16047327536446 2.0124683734609414
    vertex 5.817770688604231 -42.10936201479807 2.0124683734609414
    vertex 5.81777068860423 -39.21158453593087 2.0124683734609414
  endloop
endfacet
facet normal 0.0 0.0 1.0
  outer loop
    vertex 5.81777068860423 -39.21158453593087 2.0124683734609414
    vertex 5.817770688604231 -42.10936201479807 2.0124683734609414
    vertex 6.179542120950449 -39.36143516968781 2.0124683734609414
  endloop
endfacet
facet normal 0.0 0.0 1.0
  outer loop
    vertex 6.179542120950449 -39.36143516968781 2.0124683734609414
    vertex 5.817770688604231 -42.10936201479807 2.0124683734609414
    vertex 6.17954212095045 -41.95951138104113 2.0124683734609414
  endloop
endfacet
facet normal 0.0 0.0 1.0
  outer loop
    vertex 6.179542120950449 -39.36143516968781 2.0124683734609414
    vertex 6.17954212095045 -41.95951138104113 2.0124683734609414
    vertex 6.490202292730271 -39.59981310358465 2.0124683734609414
  endloop
endfacet
facet normal 0.0 0.0 1.0
  outer loop
    vertex 6.490202292730271 -39.59981310358465 2.0124683734609414
    vertex 6.17954212095045 -41.95951138104113 2.0124683734609414
    vertex 6.490202292730272 -41.7211334471443 2.0124683734609414
  endloop
endfacet
facet normal 0.0 0.0 1.0
  outer loop
    vertex 6.490202292730271 -39.59981310358465 2.0124683734609414
    vertex 6.490202292730272 -41.7211334471443 2.0124683734609414
    vertex 6.728580226627108 -39.910473275364474 2.0124683734609414
  endloop
endfacet
facet normal 0.0 0.0 1.0
  outer loop
    vertex 6.728580226627108 -39.910473275364474 2.0124683734609414
    vertex 6.490202292730272 -41.7211334471443 2.0124683734609414
    vertex 6.72858022662711 -41.41047327536447 2.0124683734609414
  endloop
endfacet
facet normal 0.0 0.0 1.0
  outer loop
    vertex 6.728580226627108 -39.910473275364474 2.0124683734609414
    vertex 6.72858022662711 -41.41047327536447 2.0124683734609414
    vertex 6.878430860384054 -40.27224470771068 2.0124683734609414
  endloop
endfacet
facet normal 0.0 0.0 1.0
  outer loop
    vertex 6.878430860384054 -40.27224470771068 2.0124683734609414
    vertex 6.72858022662711 -41.41047327536447 2.0124683734609414
    vertex 6.878430860384054 -41.04870184301825 2.0124683734609414
  endloop
endfacet
facet normal 0.0 0.0 1.0
  outer loop
    vertex 6.878430860384054 -40.27224470771068 2.0124683734609414
    vertex 6.878430860384054 -41.04870184301825 2.0124683734609414
    vertex 6.929542120950451 -40.660473275364474 2.0124683734609414
  endloop
endfacet
facet normal -1.0 0.0 6.186070291551549e-17
  outer loop
    vertex 137.92954212095046 -38.160473275364474 12.012468373460939
    vertex 137.92954212095046 -93.1604732753645 2.012468373460942
    vertex 137.92954212095046 -93.1604732753645 12.012468373460939
  endloop
endfacet
facet normal -1.0 0.0 6.186070291551549e-17
  outer loop
    vertex 137.92954212095046 -93.1604732753645 2.012468373460942
    vertex 137.92954212095046 -38.160473275364474 12.012468373460939
    vertex 137.92954212095046 -38.160473275364474 2.012468373460942
  endloop
endfacet
facet normal 0.0 -1.0 0.0
  outer loop
    vertex 137.92954212095046 -38.160473275364474 12.012468373460939
    vertex 2.929542120950451 -38.160473275364474 2.012468373460942
    vertex 137.92954212095046 -38.160473275364474 2.012468373460942
  endloop
endfacet
facet normal 0.0 -1.0 0.0
  outer loop
    vertex 2.929542120950451 -38.160473275364474 2.012468373460942
    vertex 137.92954212095046 -38.160473275364474 12.012468373460939
    vertex 2.929542120950451 -38.160473275364474 12.012468373460939
  endloop
endfacet
facet normal 1.0 -6.055911433196758e-18 -9.631577057633715e-49
  outer loop
    vertex 2.929542120950451 -38.160473275364474 2.012468373460942
    vertex 2.9295421209504506 -98.1604732753645 12.012468373460939
    vertex 2.9295421209504506 -98.1604732753645 2.012468373460942
  endloop
endfacet
facet normal 1.0 -6.055911433196758e-18 -9.631577057633715e-49
  outer loop
    vertex 2.9295421209504506 -98.1604732753645 12.012468373460939
    vertex 2.929542120950451 -38.160473275364474 2.012468373460942
    vertex 2.929542120950451 -38.160473275364474 12.012468373460939
  endloop
endfacet
facet normal 0.0 1.0 0.0
  outer loop
    vertex 2.9295421209504506 -98.1604732753645 12.012468373460939
    vertex 132.92954212095046 -98.1604732753645 2.012468373460942
    vertex 2.9295421209504506 -98.1604732753645 2.012468373460942
  endloop
endfacet
facet normal 0.0 1.0 0.0
  outer loop
    vertex 132.92954212095046 -98.1604732753645 2.012468373460942
    vertex 2.9295421209504506 -98.1604732753645 12.012468373460939
    vertex 132.92954212095046 -98.1604732753645 12.012468373460939
  endloop
endfacet
facet normal 0.0 1.0 0.0
  outer loop
    vertex 133.92954212095046 -97.1604732753645 12.012468373460939
    vertex 136.92954212095046 -97.1604732753645 2.012468373460942
    vertex 133.92954212095046 -97.1604732753645 2.012468373460942
  endloop
endfacet
facet normal 0.0 1.0 0.0
  outer loop
    vertex 136.92954212095046 -97.1604732753645 2.012468373460942
    vertex 133.92954212095046 -97.1604732753645 12.012468373460939
    vertex 136.92954212095046 -97.1604732753645 12.012468373460939
  endloop
endfacet
facet normal 1.0 0.0 -6.186070291551549e-17
  outer loop
    vertex 133.92954212095046 -94.1604732753645 2.012468373460942
    vertex 133.92954212095046 -97.1604732753645 12.012468373460939
    vertex 133.92954212095046 -97.1604732753645 2.012468373460942
  endloop
endfacet
facet normal 1.0 0.0 -6.186070291551549e-17
  outer loop
    vertex 133.92954212095046 -97.1604732753645 12.012468373460939
    vertex 133.92954212095046 -94.1604732753645 2.012468373460942
    vertex 133.92954212095046 -94.1604732753645 12.012468373460939
  endloop
endfacet
facet normal 0.923879532511288 -0.38268343236508695 0.0
  outer loop
    vertex 6.878430860384054 -41.04870184301825 2.0124683734609414
    vertex 6.72858022662711 -41.41047327536447 17.012468373460944
    vertex 6.72858022662711 -41.41047327536447 2.0124683734609414
  endloop
endfacet
facet normal 0.923879532511288 -0.38268343236508695 0.0
  outer loop
    vertex 6.72858022662711 -41.41047327536447 17.012468373460944
    vertex 6.878430860384054 -41.04870184301825 2.0124683734609414
    vertex 6.878430860384054 -41.04870184301825 17.012468373460944
  endloop
endfacet
facet normal -0.38268343236508073 0.9238795325112904 0.0
  outer loop
    vertex 4.679542120950447 -39.36143516968781 17.012468373460944
    vertex 5.041313553296666 -39.21158453593087 2.0124683734609414
    vertex 4.679542120950447 -39.36143516968781 2.0124683734609414
  endloop
endfacet
facet normal -0.38268343236508073 0.9238795325112904 0.0
  outer loop
    vertex 5.041313553296666 -39.21158453593087 2.0124683734609414
    vertex 4.679542120950447 -39.36143516968781 17.012468373460944
    vertex 5.041313553296666 -39.21158453593087 17.012468373460944
  endloop
endfacet
facet normal 0.6087614290087217 0.7933533402912346 0.0
  outer loop
    vertex 6.179542120950449 -39.36143516968781 17.012468373460944
    vertex 6.490202292730271 -39.59981310358465 2.0124683734609414
    vertex 6.179542120950449 -39.36143516968781 2.0124683734609414
  endloop
endfacet
facet normal 0.6087614290087217 0.7933533402912346 0.0
  outer loop
    vertex 6.490202292730271 -39.59981310358465 2.0124683734609414
    vertex 6.179542120950449 -39.36143516968781 17.012468373460944
    vertex 6.490202292730271 -39.59981310358465 17.012468373460944
  endloop
endfacet
facet normal 0.0 1.0 0.0
  outer loop
    vertex 2.172294806810481 -99.16047327536447 12.012468373460944
    vertex 138.92954212095046 -99.16047327536447 14.012468373460937
    vertex 138.92954212095046 -99.16047327536447 12.012468373460935
  endloop
endfacet
facet normal 0.0 1.0 0.0
  outer loop
    vertex 138.92954212095046 -99.16047327536447 14.012468373460937
    vertex 2.172294806810481 -99.16047327536447 12.012468373460944
    vertex 2.172294806810481 -99.16047327536447 14.012468373460948
  endloop
endfacet
facet normal 1.0 0.0 -6.186070291551549e-17
  outer loop
    vertex 2.172294806810481 -37.16047327536448 12.012468373460944
    vertex 2.172294806810481 -99.16047327536447 14.012468373460948
    vertex 2.172294806810481 -99.16047327536447 12.012468373460944
  endloop
endfacet
facet normal 1.0 0.0 -6.186070291551549e-17
  outer loop
    vertex 2.172294806810481 -99.16047327536447 14.012468373460948
    vertex 2.172294806810481 -37.16047327536448 12.012468373460944
    vertex 2.172294806810481 -37.16047327536448 14.012468373460948
  endloop
endfacet
facet normal 0.0 0.0 1.0
  outer loop
    vertex 3.9806533815168432 -41.048701843018264 17.012468373460944
    vertex 3.9806533815168432 -40.27224470771068 17.012468373460944
    vertex 3.9295421209504457 -40.660473275364474 17.012468373460944
  endloop
endfacet
facet normal 0.0 0.0 1.0
  outer loop
    vertex 3.9806533815168432 -40.27224470771068 17.012468373460944
    vertex 3.9806533815168432 -41.048701843018264 17.012468373460944
    vertex 4.130504015273789 -41.41047327536447 17.012468373460944
  endloop
endfacet
facet normal 0.0 0.0 1.0
  outer loop
    vertex 3.9806533815168432 -40.27224470771068 17.012468373460944
    vertex 4.130504015273789 -41.41047327536447 17.012468373460944
    vertex 4.130504015273789 -39.910473275364474 17.012468373460944
  endloop
endfacet
facet normal 0.0 0.0 1.0
  outer loop
    vertex 4.130504015273789 -39.910473275364474 17.012468373460944
    vertex 4.130504015273789 -41.41047327536447 17.012468373460944
    vertex 4.368881949170625 -41.7211334471443 17.012468373460944
  endloop
endfacet
facet normal 0.0 0.0 1.0
  outer loop
    vertex 4.130504015273789 -39.910473275364474 17.012468373460944
    vertex 4.368881949170625 -41.7211334471443 17.012468373460944
    vertex 4.368881949170625 -39.59981310358465 17.012468373460944
  endloop
endfacet
facet normal 0.0 0.0 1.0
  outer loop
    vertex 4.368881949170625 -39.59981310358465 17.012468373460944
    vertex 4.368881949170625 -41.7211334471443 17.012468373460944
    vertex 4.679542120950447 -41.95951138104113 17.012468373460944
  endloop
endfacet
facet normal 0.0 0.0 1.0
  outer loop
    vertex 4.368881949170625 -39.59981310358465 17.012468373460944
    vertex 4.679542120950447 -41.95951138104113 17.012468373460944
    vertex 4.679542120950447 -39.36143516968781 17.012468373460944
  endloop
endfacet
facet normal 0.0 0.0 1.0
  outer loop
    vertex 4.679542120950447 -39.36143516968781 17.012468373460944
    vertex 4.679542120950447 -41.95951138104113 17.012468373460944
    vertex 5.041313553296666 -39.21158453593087 17.012468373460944
  endloop
endfacet
facet normal 0.0 0.0 1.0
  outer loop
    vertex 5.041313553296666 -39.21158453593087 17.012468373460944
    vertex 4.679542120950447 -41.95951138104113 17.012468373460944
    vertex 5.041313553296666 -42.10936201479807 17.012468373460944
  endloop
endfacet
facet normal 0.0 0.0 1.0
  outer loop
    vertex 5.041313553296666 -39.21158453593087 17.012468373460944
    vertex 5.041313553296666 -42.10936201479807 17.012468373460944
    vertex 5.429542120950448 -42.16047327536448 17.012468373460944
  endloop
endfacet
facet normal 0.0 0.0 1.0
  outer loop
    vertex 5.041313553296666 -39.21158453593087 17.012468373460944
    vertex 5.429542120950448 -42.16047327536448 17.012468373460944
    vertex 5.429542120950448 -39.16047327536446 17.012468373460944
  endloop
endfacet
facet normal 0.0 0.0 1.0
  outer loop
    vertex 5.429542120950448 -39.16047327536446 17.012468373460944
    vertex 5.429542120950448 -42.16047327536448 17.012468373460944
    vertex 5.817770688604231 -42.10936201479807 17.012468373460944
  endloop
endfacet
facet normal 0.0 0.0 1.0
  outer loop
    vertex 5.429542120950448 -39.16047327536446 17.012468373460944
    vertex 5.817770688604231 -42.10936201479807 17.012468373460944
    vertex 5.81777068860423 -39.21158453593087 17.012468373460944
  endloop
endfacet
facet normal 0.0 0.0 1.0
  outer loop
    vertex 5.81777068860423 -39.21158453593087 17.012468373460944
    vertex 5.817770688604231 -42.10936201479807 17.012468373460944
    vertex 6.179542120950449 -39.36143516968781 17.012468373460944
  endloop
endfacet
facet normal 0.0 0.0 1.0
  outer loop
    vertex 6.179542120950449 -39.36143516968781 17.012468373460944
    vertex 5.817770688604231 -42.10936201479807 17.012468373460944
    vertex 6.17954212095045 -41.95951138104113 17.012468373460944
  endloop
endfacet
facet normal 0.0 0.0 1.0
  outer loop
    vertex 6.179542120950449 -39.36143516968781 17.012468373460944
    vertex 6.17954212095045 -41.95951138104113 17.012468373460944
    vertex 6.490202292730271 -39.59981310358465 17.012468373460944
  endloop
endfacet
facet normal 0.0 0.0 1.0
  outer loop
    vertex 6.490202292730271 -39.59981310358465 17.012468373460944
    vertex 6.17954212095045 -41.95951138104113 17.012468373460944
    vertex 6.490202292730272 -41.7211334471443 17.012468373460944
  endloop
endfacet
facet normal 0.0 0.0 1.0
  outer loop
    vertex 6.490202292730271 -39.59981310358465 17.012468373460944
    vertex 6.490202292730272 -41.7211334471443 17.012468373460944
    vertex 6.728580226627108 -39.910473275364474 17.012468373460944
  endloop
endfacet
facet normal 0.0 0.0 1.0
  outer loop
    vertex 6.728580226627108 -39.910473275364474 17.012468373460944
    vertex 6.490202292730272 -41.7211334471443 17.012468373460944
    vertex 6.72858022662711 -41.41047327536447 17.012468373460944
  endloop
endfacet
facet normal 0.0 0.0 1.0
  outer loop
    vertex 6.728580226627108 -39.910473275364474 17.012468373460944
    vertex 6.72858022662711 -41.41047327536447 17.012468373460944
    vertex 6.878430860384054 -40.27224470771068 17.012468373460944
  endloop
endfacet
facet normal 0.0 0.0 1.0
  outer loop
    vertex 6.878430860384054 -40.27224470771068 17.012468373460944
    vertex 6.72858022662711 -41.41047327536447 17.012468373460944
    vertex 6.878430860384054 -41.04870184301825 17.012468373460944
  endloop
endfacet
facet normal 0.0 0.0 1.0
  outer loop
    vertex 6.878430860384054 -40.27224470771068 17.012468373460944
    vertex 6.878430860384054 -41.04870184301825 17.012468373460944
    vertex 6.929542120950451 -40.660473275364474 17.012468373460944
  endloop
endfacet
facet normal 0.9238795325112867 0.38268343236509006 0.0
  outer loop
    vertex 6.728580226627108 -39.910473275364474 2.0124683734609414
    vertex 6.878430860384054 -40.27224470771068 17.012468373460944
    vertex 6.878430860384054 -40.27224470771068 2.0124683734609414
  endloop
endfacet
facet normal 0.9238795325112867 0.38268343236509006 0.0
  outer loop
    vertex 6.878430860384054 -40.27224470771068 17.012468373460944
    vertex 6.728580226627108 -39.910473275364474 2.0124683734609414
    vertex 6.728580226627108 -39.910473275364474 17.012468373460944
  endloop
endfacet
facet normal 0.13052619222005876 0.9914448613738096 0.0
  outer loop
    vertex 5.429542120950448 -39.16047327536446 17.012468373460944
    vertex 5.81777068860423 -39.21158453593087 2.0124683734609414
    vertex 5.429542120950448 -39.16047327536446 2.0124683734609414
  endloop
endfacet
facet normal 0.13052619222005876 0.9914448613738096 0.0
  outer loop
    vertex 5.81777068860423 -39.21158453593087 2.0124683734609414
    vertex 5.429542120950448 -39.16047327536446 17.012468373460944
    vertex 5.81777068860423 -39.21158453593087 17.012468373460944
  endloop
endfacet
facet normal -0.7933533402912335 -0.6087614290087231 -0.0
  outer loop
    vertex 4.130504015273789 -41.41047327536447 17.012468373460944
    vertex 4.368881949170625 -41.7211334471443 2.0124683734609414
    vertex 4.368881949170625 -41.7211334471443 17.012468373460944
  endloop
endfacet
facet normal -0.7933533402912335 -0.6087614290087231 -0.0
  outer loop
    vertex 4.368881949170625 -41.7211334471443 2.0124683734609414
    vertex 4.130504015273789 -41.41047327536447 17.012468373460944
    vertex 4.130504015273789 -41.41047327536447 2.0124683734609414
  endloop
endfacet
facet normal -0.38268343236508146 -0.9238795325112902 -0.0
  outer loop
    vertex 5.041313553296666 -42.10936201479807 17.012468373460944
    vertex 4.679542120950447 -41.95951138104113 2.0124683734609414
    vertex 5.041313553296666 -42.10936201479807 2.0124683734609414
  endloop
endfacet
facet normal -0.38268343236508146 -0.9238795325112902 -0.0
  outer loop
    vertex 4.679542120950447 -41.95951138104113 2.0124683734609414
    vertex 5.041313553296666 -42.10936201479807 17.012468373460944
    vertex 4.679542120950447 -41.95951138104113 17.012468373460944
  endloop
endfacet
facet normal 6.186070291551549e-17 0.0 1.0
  outer loop
    vertex 2.172294806810481 -99.16047327536447 12.012468373460944
    vertex 2.9295421209504506 -98.1604732753645 12.012468373460939
    vertex 2.172294806810481 -37.16047327536448 12.012468373460944
  endloop
endfacet
facet normal 6.186070291551549e-17 0.0 1.0
  outer loop
    vertex 2.9295421209504506 -98.1604732753645 12.012468373460939
    vertex 2.172294806810481 -99.16047327536447 12.012468373460944
    vertex 138.92954212095046 -99.16047327536447 12.012468373460935
  endloop
endfacet
facet normal 6.186070291551549e-17 0.0 1.0
  outer loop
    vertex 2.9295421209504506 -98.1604732753645 12.012468373460939
    vertex 138.92954212095046 -99.16047327536447 12.012468373460935
    vertex 132.92954212095046 -98.1604732753645 12.012468373460939
  endloop
endfacet
facet normal 6.186070291551549e-17 0.0 1.0
  outer loop
    vertex 132.92954212095046 -98.1604732753645 12.012468373460939
    vertex 138.92954212095046 -99.16047327536447 12.012468373460935
    vertex 133.92954212095046 -97.1604732753645 12.012468373460939
  endloop
endfacet
facet normal 6.186070291551549e-17 0.0 1.0
  outer loop
    vertex 132.92954212095046 -98.1604732753645 12.012468373460939
    vertex 133.92954212095046 -97.1604732753645 12.012468373460939
    vertex 132.92954212095046 -93.1604732753645 12.012468373460939
  endloop
endfacet
facet normal 6.186070291551549e-17 0.0 1.0
  outer loop
    vertex 133.92954212095046 -97.1604732753645 12.012468373460939
    vertex 138.92954212095046 -99.16047327536447 12.012468373460935
    vertex 136.92954212095046 -97.1604732753645 12.012468373460939
  endloop
endfacet
facet normal 6.186070291551549e-17 0.0 1.0
  outer loop
    vertex 136.92954212095046 -97.1604732753645 12.012468373460939
    vertex 138.92954212095046 -99.16047327536447 12.012468373460935
    vertex 136.92954212095046 -94.1604732753645 12.012468373460939
  endloop
endfacet
facet normal 6.186070291551549e-17 0.0 1.0
  outer loop
    vertex 136.92954212095046 -94.1604732753645 12.012468373460939
    vertex 138.92954212095046 -99.16047327536447 12.012468373460935
    vertex 137.92954212095046 -93.1604732753645 12.012468373460939
  endloop
endfacet
facet normal 6.186070291551549e-17 0.0 1.0
  outer loop
    vertex 137.92954212095046 -93.1604732753645 12.012468373460939
    vertex 138.92954212095046 -99.16047327536447 12.012468373460935
    vertex 137.92954212095046 -38.160473275364474 12.012468373460939
  endloop
endfacet
facet normal 6.186070291551549e-17 0.0 1.0
  outer loop
    vertex 2.172294806810481 -37.16047327536448 12.012468373460944
    vertex 2.929542120950451 -38.160473275364474 12.012468373460939
    vertex 138.92954212095046 -37.16047327536448 12.012468373460935
  endloop
endfacet
facet normal 6.186070291551549e-17 0.0 1.0
  outer loop
    vertex 2.929542120950451 -38.160473275364474 12.012468373460939
    vertex 2.172294806810481 -37.16047327536448 12.012468373460944
    vertex 2.9295421209504506 -98.1604732753645 12.012468373460939
  endloop
endfacet
facet normal 6.186070291551549e-17 0.0 1.0
  outer loop
    vertex 138.92954212095046 -37.16047327536448 12.012468373460935
    vertex 2.929542120950451 -38.160473275364474 12.012468373460939
    vertex 137.92954212095046 -38.160473275364474 12.012468373460939
  endloop
endfacet
facet normal 6.186070291551549e-17 0.0 1.0
  outer loop
    vertex 138.92954212095046 -37.16047327536448 12.012468373460935
    vertex 137.92954212095046 -38.160473275364474 12.012468373460939
    vertex 138.92954212095046 -99.16047327536447 12.012468373460935
  endloop
endfacet
facet normal 6.186070291551549e-17 0.0 1.0
  outer loop
    vertex 132.92954212095046 -93.1604732753645 12.012468373460939
    vertex 133.92954212095046 -94.1604732753645 12.012468373460939
    vertex 137.92954212095046 -93.1604732753645 12.012468373460939
  endloop
endfacet
facet normal 6.186070291551549e-17 0.0 1.0
  outer loop
    vertex 133.92954212095046 -94.1604732753645 12.012468373460939
    vertex 132.92954212095046 -93.1604732753645 12.012468373460939
    vertex 133.92954212095046 -97.1604732753645 12.012468373460939
  endloop
endfacet
facet normal 6.186070291551549e-17 0.0 1.0
  outer loop
    vertex 137.92954212095046 -93.1604732753645 12.012468373460939
    vertex 133.92954212095046 -94.1604732753645 12.012468373460939
    vertex 136.92954212095046 -94.1604732753645 12.012468373460939
  endloop
endfacet
facet normal 0.0 0.0 1.0
  outer loop
    vertex 2.9295421209504506 -98.1604732753645 2.012468373460942
    vertex 3.9806533815168432 -41.048701843018264 2.0124683734609414
    vertex 2.929542120950451 -38.160473275364474 2.012468373460942
  endloop
endfacet
facet normal 0.0 0.0 1.0
  outer loop
    vertex 3.9806533815168432 -41.048701843018264 2.0124683734609414
    vertex 2.9295421209504506 -98.1604732753645 2.012468373460942
    vertex 4.130504015273789 -41.41047327536447 2.0124683734609414
  endloop
endfacet
facet normal 0.0 0.0 1.0
  outer loop
    vertex 4.130504015273789 -41.41047327536447 2.0124683734609414
    vertex 2.9295421209504506 -98.1604732753645 2.012468373460942
    vertex 4.368881949170625 -41.7211334471443 2.0124683734609414
  endloop
endfacet
facet normal 0.0 0.0 1.0
  outer loop
    vertex 4.368881949170625 -41.7211334471443 2.0124683734609414
    vertex 2.9295421209504506 -98.1604732753645 2.012468373460942
    vertex 4.679542120950447 -41.95951138104113 2.0124683734609414
  endloop
endfacet
facet normal 0.0 0.0 1.0
  outer loop
    vertex 4.679542120950447 -41.95951138104113 2.0124683734609414
    vertex 2.9295421209504506 -98.1604732753645 2.012468373460942
    vertex 132.92954212095046 -98.1604732753645 2.012468373460942
  endloop
endfacet
facet normal 0.0 0.0 1.0
  outer loop
    vertex 2.929542120950451 -38.160473275364474 2.012468373460942
    vertex 3.9806533815168432 -41.048701843018264 2.0124683734609414
    vertex 3.9295421209504457 -40.660473275364474 2.0124683734609414
  endloop
endfacet
facet normal 0.0 0.0 1.0
  outer loop
    vertex 4.679542120950447 -41.95951138104113 2.0124683734609414
    vertex 132.92954212095046 -98.1604732753645 2.012468373460942
    vertex 5.041313553296666 -42.10936201479807 2.0124683734609414
  endloop
endfacet
facet normal 0.0 0.0 1.0
  outer loop
    vertex 5.041313553296666 -42.10936201479807 2.0124683734609414
    vertex 132.92954212095046 -98.1604732753645 2.012468373460942
    vertex 5.429542120950448 -42.16047327536448 2.0124683734609414
  endloop
endfacet
facet normal 0.0 0.0 1.0
  outer loop
    vertex 5.429542120950448 -42.16047327536448 2.0124683734609414
    vertex 132.92954212095046 -98.1604732753645 2.012468373460942
    vertex 5.817770688604231 -42.10936201479807 2.0124683734609414
  endloop
endfacet
facet normal 0.0 0.0 1.0
  outer loop
    vertex 5.817770688604231 -42.10936201479807 2.0124683734609414
    vertex 132.92954212095046 -98.1604732753645 2.012468373460942
    vertex 6.17954212095045 -41.95951138104113 2.0124683734609414
  endloop
endfacet
facet normal 0.0 0.0 1.0
  outer loop
    vertex 6.17954212095045 -41.95951138104113 2.0124683734609414
    vertex 132.92954212095046 -98.1604732753645 2.012468373460942
    vertex 6.490202292730272 -41.7211334471443 2.0124683734609414
  endloop
endfacet
facet normal 0.0 0.0 1.0
  outer loop
    vertex 6.490202292730272 -41.7211334471443 2.0124683734609414
    vertex 132.92954212095046 -98.1604732753645 2.012468373460942
    vertex 6.72858022662711 -41.41047327536447 2.0124683734609414
  endloop
endfacet
facet normal 0.0 0.0 1.0
  outer loop
    vertex 6.72858022662711 -41.41047327536447 2.0124683734609414
    vertex 132.92954212095046 -98.1604732753645 2.012468373460942
    vertex 6.878430860384054 -41.04870184301825 2.0124683734609414
  endloop
endfacet
facet normal 0.0 0.0 1.0
  outer loop
    vertex 6.878430860384054 -41.04870184301825 2.0124683734609414
    vertex 132.92954212095046 -98.1604732753645 2.012468373460942
    vertex 6.929542120950451 -40.660473275364474 2.0124683734609414
  endloop
endfacet
facet normal 0.0 0.0 1.0
  outer loop
    vertex 2.929542120950451 -38.160473275364474 2.012468373460942
    vertex 5.429542120950448 -39.16047327536446 2.0124683734609414
    vertex 137.92954212095046 -38.160473275364474 2.012468373460942
  endloop
endfacet
facet normal 0.0 0.0 1.0
  outer loop
    vertex 5.429542120950448 -39.16047327536446 2.0124683734609414
    vertex 2.929542120950451 -38.160473275364474 2.012468373460942
    vertex 5.041313553296666 -39.21158453593087 2.0124683734609414
  endloop
endfacet
facet normal 0.0 0.0 1.0
  outer loop
    vertex 5.041313553296666 -39.21158453593087 2.0124683734609414
    vertex 2.929542120950451 -38.160473275364474 2.012468373460942
    vertex 4.679542120950447 -39.36143516968781 2.0124683734609414
  endloop
endfacet
facet normal 0.0 0.0 1.0
  outer loop
    vertex 4.679542120950447 -39.36143516968781 2.0124683734609414
    vertex 2.929542120950451 -38.160473275364474 2.012468373460942
    vertex 4.368881949170625 -39.59981310358465 2.0124683734609414
  endloop
endfacet
facet normal 0.0 0.0 1.0
  outer loop
    vertex 4.368881949170625 -39.59981310358465 2.0124683734609414
    vertex 2.929542120950451 -38.160473275364474 2.012468373460942
    vertex 4.130504015273789 -39.910473275364474 2.0124683734609414
  endloop
endfacet
facet normal 0.0 0.0 1.0
  outer loop
    vertex 4.130504015273789 -39.910473275364474 2.0124683734609414
    vertex 2.929542120950451 -38.160473275364474 2.012468373460942
    vertex 3.9806533815168432 -40.27224470771068 2.0124683734609414
  endloop
endfacet
facet normal 0.0 0.0 1.0
  outer loop
    vertex 3.9806533815168432 -40.27224470771068 2.0124683734609414
    vertex 2.929542120950451 -38.160473275364474 2.012468373460942
    vertex 3.9295421209504457 -40.660473275364474 2.0124683734609414
  endloop
endfacet
facet normal 0.0 0.0 1.0
  outer loop
    vertex 137.92954212095046 -38.160473275364474 2.012468373460942
    vertex 5.429542120950448 -39.16047327536446 2.0124683734609414
    vertex 5.81777068860423 -39.21158453593087 2.0124683734609414
  endloop
endfacet
facet normal 0.0 0.0 1.0
  outer loop
    vertex 137.92954212095046 -38.160473275364474 2.012468373460942
    vertex 5.81777068860423 -39.21158453593087 2.0124683734609414
    vertex 6.179542120950449 -39.36143516968781 2.0124683734609414
  endloop
endfacet
facet normal 0.0 0.0 1.0
  outer loop
    vertex 137.92954212095046 -38.160473275364474 2.012468373460942
    vertex 6.179542120950449 -39.36143516968781 2.0124683734609414
    vertex 6.490202292730271 -39.59981310358465 2.0124683734609414
  endloop
endfacet
facet normal 0.0 0.0 1.0
  outer loop
    vertex 137.92954212095046 -38.160473275364474 2.012468373460942
    vertex 6.490202292730271 -39.59981310358465 2.0124683734609414
    vertex 6.728580226627108 -39.910473275364474 2.0124683734609414
  endloop
endfacet
facet normal 0.0 0.0 1.0
  outer loop
    vertex 137.92954212095046 -38.160473275364474 2.012468373460942
    vertex 6.728580226627108 -39.910473275364474 2.0124683734609414
    vertex 6.878430860384054 -40.27224470771068 2.0124683734609414
  endloop
endfacet
facet normal 0.0 0.0 1.0
  outer loop
    vertex 137.92954212095046 -38.160473275364474 2.012468373460942
    vertex 6.878430860384054 -40.27224470771068 2.0124683734609414
    vertex 6.929542120950451 -40.660473275364474 2.0124683734609414
  endloop
endfacet
facet normal 0.0 0.0 1.0
  outer loop
    vertex 137.92954212095046 -38.160473275364474 2.012468373460942
    vertex 6.929542120950451 -40.660473275364474 2.0124683734609414
    vertex 132.92954212095046 -93.1604732753645 2.012468373460942
  endloop
endfacet
facet normal 0.0 0.0 1.0
  outer loop
    vertex 132.92954212095046 -93.1604732753645 2.012468373460942
    vertex 6.929542120950451 -40.660473275364474 2.0124683734609414
    vertex 132.92954212095046 -98.1604732753645 2.012468373460942
  endloop
endfacet
facet normal 0.0 0.0 1.0
  outer loop
    vertex 137.92954212095046 -38.160473275364474 2.012468373460942
    vertex 132.92954212095046 -93.1604732753645 2.012468373460942
    vertex 137.92954212095046 -93.1604732753645 2.012468373460942
  endloop
endfacet
facet normal 0.6087614290087217 -0.7933533402912346 0.0
  outer loop
    vertex 6.490202292730272 -41.7211334471443 17.012468373460944
    vertex 6.17954212095045 -41.95951138104113 2.0124683734609414
    vertex 6.490202292730272 -41.7211334471443 2.0124683734609414
  endloop
endfacet
facet normal 0.6087614290087217 -0.7933533402912346 0.0
  outer loop
    vertex 6.17954212095045 -41.95951138104113 2.0124683734609414
    vertex 6.490202292730272 -41.7211334471443 17.012468373460944
    vertex 6.17954212095045 -41.95951138104113 17.012468373460944
  endloop
endfacet
facet normal -0.0 -1.0 -0.0
  outer loop
    vertex 138.92954212095046 -37.16047327536448 14.012468373460937
    vertex 2.172294806810481 -37.16047327536448 12.012468373460944
    vertex 138.92954212095046 -37.16047327536448 12.012468373460935
  endloop
endfacet
facet normal -0.0 -1.0 -0.0
  outer loop
    vertex 2.172294806810481 -37.16047327536448 12.012468373460944
    vertex 138.92954212095046 -37.16047327536448 14.012468373460937
    vertex 2.172294806810481 -37.16047327536448 14.012468373460948
  endloop
endfacet
facet normal -1.0 0.0 6.186070291551549e-17
  outer loop
    vertex 138.92954212095046 -37.16047327536448 14.012468373460937
    vertex 138.92954212095046 -99.16047327536447 12.012468373460935
    vertex 138.92954212095046 -99.16047327536447 14.012468373460937
  endloop
endfacet
facet normal -1.0 0.0 6.186070291551549e-17
  outer loop
    vertex 138.92954212095046 -99.16047327536447 12.012468373460935
    vertex 138.92954212095046 -37.16047327536448 14.012468373460937
    vertex 138.92954212095046 -37.16047327536448 12.012468373460935
  endloop
endfacet
facet normal -0.9238795325112867 -0.38268343236509006 -0.0
  outer loop
    vertex 3.9806533815168432 -41.048701843018264 17.012468373460944
    vertex 4.130504015273789 -41.41047327536447 2.0124683734609414
    vertex 4.130504015273789 -41.41047327536447 17.012468373460944
  endloop
endfacet
facet normal -0.9238795325112867 -0.38268343236509006 -0.0
  outer loop
    vertex 4.130504015273789 -41.41047327536447 2.0124683734609414
    vertex 3.9806533815168432 -41.048701843018264 17.012468373460944
    vertex 3.9806533815168432 -41.048701843018264 2.0124683734609414
  endloop
endfacet
facet normal -0.6087614290087217 -0.7933533402912346 -0.0
  outer loop
    vertex 4.679542120950447 -41.95951138104113 17.012468373460944
    vertex 4.368881949170625 -41.7211334471443 2.0124683734609414
    vertex 4.679542120950447 -41.95951138104113 2.0124683734609414
  endloop
endfacet
facet normal -0.6087614290087217 -0.7933533402912346 -0.0
  outer loop
    vertex 4.368881949170625 -41.7211334471443 2.0124683734609414
    vertex 4.679542120950447 -41.95951138104113 17.012468373460944
    vertex 4.368881949170625 -41.7211334471443 17.012468373460944
  endloop
endfacet
facet normal 0.38268343236508146 -0.9238795325112902 0.0
  outer loop
    vertex 6.17954212095045 -41.95951138104113 17.012468373460944
    vertex 5.817770688604231 -42.10936201479807 2.0124683734609414
    vertex 6.17954212095045 -41.95951138104113 2.0124683734609414
  endloop
endfacet
facet normal 0.38268343236508146 -0.9238795325112902 0.0
  outer loop
    vertex 5.817770688604231 -42.10936201479807 2.0124683734609414
    vertex 6.17954212095045 -41.95951138104113 17.012468373460944
    vertex 5.817770688604231 -42.10936201479807 17.012468373460944
  endloop
endfacet
facet normal 3.6630413482907286e-17 1.3673837371398196e-17 1.0
  outer loop
    vertex 0.9295421209504511 -100.16047327536448 14.012468373460942
    vertex 2.172294806810481 -99.16047327536447 14.012468373460948
    vertex 0.9295421209504511 -36.16047327536448 14.012468373460942
  endloop
endfacet
facet normal 3.6630413482907286e-17 1.3673837371398196e-17 1.0
  outer loop
    vertex 2.172294806810481 -99.16047327536447 14.012468373460948
    vertex 0.9295421209504511 -100.16047327536448 14.012468373460942
    vertex 139.92954212095046 -100.16047327536448 14.012468373460942
  endloop
endfacet
facet normal 3.6630413482907286e-17 1.3673837371398196e-17 1.0
  outer loop
    vertex 2.172294806810481 -99.16047327536447 14.012468373460948
    vertex 139.92954212095046 -100.16047327536448 14.012468373460942
    vertex 138.92954212095046 -99.16047327536447 14.012468373460937
  endloop
endfacet
facet normal 3.6630413482907286e-17 1.3673837371398196e-17 1.0
  outer loop
    vertex 138.92954212095046 -99.16047327536447 14.012468373460937
    vertex 139.92954212095046 -100.16047327536448 14.012468373460942
    vertex 138.92954212095046 -37.16047327536448 14.012468373460937
  endloop
endfacet
facet normal 3.6630413482907286e-17 1.3673837371398196e-17 1.0
  outer loop
    vertex 0.9295421209504511 -36.16047327536448 14.012468373460942
    vertex 2.172294806810481 -37.16047327536448 14.012468373460948
    vertex 139.92954212095046 -36.16047327536448 14.012468373460937
  endloop
endfacet
facet normal 3.6630413482907286e-17 1.3673837371398196e-17 1.0
  outer loop
    vertex 2.172294806810481 -37.16047327536448 14.012468373460948
    vertex 0.9295421209504511 -36.16047327536448 14.012468373460942
    vertex 2.172294806810481 -99.16047327536447 14.012468373460948
  endloop
endfacet
facet normal 3.6630413482907286e-17 1.3673837371398196e-17 1.0
  outer loop
    vertex 139.92954212095046 -36.16047327536448 14.012468373460937
    vertex 2.172294806810481 -37.16047327536448 14.012468373460948
    vertex 138.92954212095046 -37.16047327536448 14.012468373460937
  endloop
endfacet
facet normal 3.6630413482907286e-17 1.3673837371398196e-17 1.0
  outer loop
    vertex 139.92954212095046 -36.16047327536448 14.012468373460937
    vertex 138.92954212095046 -37.16047327536448 14.012468373460937
    vertex 139.92954212095046 -100.16047327536448 14.012468373460942
  endloop
endfacet
facet normal 0.0 0.0 1.0
  outer loop
    vertex 136.92954212095046 -97.1604732753645 2.012468373460942
    vertex 133.92954212095046 -94.1604732753645 2.012468373460942
    vertex 133.92954212095046 -97.1604732753645 2.012468373460942
  endloop
endfacet
facet normal 0.0 0.0 1.0
  outer loop
    vertex 133.92954212095046 -94.1604732753645 2.012468373460942
    vertex 136.92954212095046 -97.1604732753645 2.012468373460942
    vertex 136.92954212095046 -94.1604732753645 2.012468373460942
  endloop
endfacet
facet normal -0.7933533402912388 0.6087614290087162 0.0
  outer loop
    vertex 4.368881949170625 -39.59981310358465 17.012468373460944
    vertex 4.130504015273789 -39.910473275364474 2.0124683734609414
    vertex 4.130504015273789 -39.910473275364474 17.012468373460944
  endloop
endfacet
facet normal -0.7933533402912388 0.6087614290087162 0.0
  outer loop
    vertex 4.130504015273789 -39.910473275364474 2.0124683734609414
    vertex 4.368881949170625 -39.59981310358465 17.012468373460944
    vertex 4.368881949170625 -39.59981310358465 2.0124683734609414
  endloop
endfacet
facet normal -0.9914448613738105 -0.13052619222005074 -0.0
  outer loop
    vertex 3.9295421209504457 -40.660473275364474 17.012468373460944
    vertex 3.9806533815168432 -41.048701843018264 2.0124683734609414
    vertex 3.9806533815168432 -41.048701843018264 17.012468373460944
  endloop
endfacet
facet normal -0.9914448613738105 -0.13052619222005074 -0.0
  outer loop
    vertex 3.9806533815168432 -41.048701843018264 2.0124683734609414
    vertex 3.9295421209504457 -40.660473275364474 17.012468373460944
    vertex 3.9295421209504457 -40.660473275364474 2.0124683734609414
  endloop
endfacet
facet normal -0.9238795325112845 0.3826834323650951 0.0
  outer loop
    vertex 4.130504015273789 -39.910473275364474 17.012468373460944
    vertex 3.9806533815168432 -40.27224470771068 2.0124683734609414
    vertex 3.9806533815168432 -40.27224470771068 17.012468373460944
  endloop
endfacet
facet normal -0.9238795325112845 0.3826834323650951 0.0
  outer loop
    vertex 3.9806533815168432 -40.27224470771068 2.0124683734609414
    vertex 4.130504015273789 -39.910473275364474 17.012468373460944
    vertex 4.130504015273789 -39.910473275364474 2.0124683734609414
  endloop
endfacet
facet normal -0.13052619222005854 -0.9914448613738096 -0.0
  outer loop
    vertex 5.429542120950448 -42.16047327536448 17.012468373460944
    vertex 5.041313553296666 -42.10936201479807 2.0124683734609414
    vertex 5.429542120950448 -42.16047327536448 2.0124683734609414
  endloop
endfacet
facet normal -0.13052619222005854 -0.9914448613738096 -0.0
  outer loop
    vertex 5.041313553296666 -42.10936201479807 2.0124683734609414
    vertex 5.429542120950448 -42.16047327536448 17.012468373460944
    vertex 5.041313553296666 -42.10936201479807 17.012468373460944
  endloop
endfacet
facet normal -1.2595234092465397e-05 2.8018418348626274e-05 -0.9999999995281643
  outer loop
    vertex 139.92954212095046 -36.16047327536448 0.01246837346094217
    vertex 0.9295421209504511 -100.16047327536448 0.01246837346094217
    vertex 0.9295421209504511 -36.16047327536448 0.01246837346094217
  endloop
endfacet
facet normal -1.2595234092465397e-05 2.8018418348626274e-05 -0.9999999995281643
  outer loop
    vertex 0.9295421209504511 -100.16047327536448 0.01246837346094217
    vertex 139.92954212095046 -36.16047327536448 0.01246837346094217
    vertex 138.28460525983948 -100.16047327536448 0.006234186730471085
  endloop
endfacet
facet normal -1.2595234092465397e-05 2.8018418348626274e-05 -0.9999999995281643
  outer loop
    vertex 138.28460525983948 -100.16047327536448 0.006234186730471085
    vertex 139.92954212095046 -36.16047327536448 0.01246837346094217
    vertex 139.92954212095046 -100.16047327536448 0.01246837346094217
  endloop
endfacet
facet normal 0.7933533402912378 -0.6087614290087172 0.0
  outer loop
    vertex 6.72858022662711 -41.41047327536447 2.0124683734609414
    vertex 6.490202292730272 -41.7211334471443 17.012468373460944
    vertex 6.490202292730272 -41.7211334471443 2.0124683734609414
  endloop
endfacet
facet normal 0.7933533402912378 -0.6087614290087172 0.0
  outer loop
    vertex 6.490202292730272 -41.7211334471443 17.012468373460944
    vertex 6.72858022662711 -41.41047327536447 2.0124683734609414
    vertex 6.72858022662711 -41.41047327536447 17.012468373460944
  endloop
endfacet
facet normal 1.0 0.0 0.0
  outer loop
    vertex 139.92954212095046 -36.16047327536448 0.01246837346094217
    vertex 139.92954212095046 -100.16047327536448 14.012468373460942
    vertex 139.92954212095046 -100.16047327536448 0.01246837346094217
  endloop
endfacet
facet normal 1.0 0.0 0.0
  outer loop
    vertex 139.92954212095046 -100.16047327536448 14.012468373460942
    vertex 139.92954212095046 -36.16047327536448 0.01246837346094217
    vertex 139.92954212095046 -36.16047327536448 14.012468373460937
  endloop
endfacet
facet normal 0.0 1.0 0.0
  outer loop
    vertex 0.9295421209504511 -36.16047327536448 14.012468373460942
    vertex 139.92954212095046 -36.16047327536448 0.01246837346094217
    vertex 0.9295421209504511 -36.16047327536448 0.01246837346094217
  endloop
endfacet
facet normal 0.0 1.0 0.0
  outer loop
    vertex 139.92954212095046 -36.16047327536448 0.01246837346094217
    vertex 0.9295421209504511 -36.16047327536448 14.012468373460942
    vertex 139.92954212095046 -36.16047327536448 14.012468373460937
  endloop
endfacet
facet normal 0.0 -1.0 0.0
  outer loop
    vertex 136.92954212095046 -94.1604732753645 12.012468373460939
    vertex 133.92954212095046 -94.1604732753645 2.012468373460942
    vertex 136.92954212095046 -94.1604732753645 2.012468373460942
  endloop
endfacet
facet normal 0.0 -1.0 0.0
  outer loop
    vertex 133.92954212095046 -94.1604732753645 2.012468373460942
    vertex 136.92954212095046 -94.1604732753645 12.012468373460939
    vertex 133.92954212095046 -94.1604732753645 12.012468373460939
  endloop
endfacet
facet normal -0.13052619222005854 0.9914448613738096 0.0
  outer loop
    vertex 5.041313553296666 -39.21158453593087 17.012468373460944
    vertex 5.429542120950448 -39.16047327536446 2.0124683734609414
    vertex 5.041313553296666 -39.21158453593087 2.0124683734609414
  endloop
endfacet
facet normal -0.13052619222005854 0.9914448613738096 0.0
  outer loop
    vertex 5.429542120950448 -39.16047327536446 2.0124683734609414
    vertex 5.041313553296666 -39.21158453593087 17.012468373460944
    vertex 5.429542120950448 -39.16047327536446 17.012468373460944
  endloop
endfacet
facet normal -1.0 0.0 6.186070291551549e-17
  outer loop
    vertex 132.92954212095046 -93.1604732753645 12.012468373460939
    vertex 132.92954212095046 -98.1604732753645 2.012468373460942
    vertex 132.92954212095046 -98.1604732753645 12.012468373460939
  endloop
endfacet
facet normal -1.0 0.0 6.186070291551549e-17
  outer loop
    vertex 132.92954212095046 -98.1604732753645 2.012468373460942
    vertex 132.92954212095046 -93.1604732753645 12.012468373460939
    vertex 132.92954212095046 -93.1604732753645 2.012468373460942
  endloop
endfacet
facet normal 0.0 -1.0 0.0
  outer loop
    vertex 139.92954212095046 -100.16047327536448 0.01246837346094217
    vertex 0.9295421209504511 -100.16047327536448 0.01246837346094217
    vertex 138.28460525983948 -100.16047327536448 0.006234186730471085
  endloop
endfacet
facet normal 0.0 -1.0 0.0
  outer loop
    vertex 0.9295421209504511 -100.16047327536448 0.01246837346094217
    vertex 139.92954212095046 -100.16047327536448 0.01246837346094217
    vertex 139.92954212095046 -100.16047327536448 14.012468373460942
  endloop
endfacet
facet normal 0.0 -1.0 0.0
  outer loop
    vertex 0.9295421209504511 -100.16047327536448 0.01246837346094217
    vertex 139.92954212095046 -100.16047327536448 14.012468373460942
    vertex 0.9295421209504511 -100.16047327536448 14.012468373460942
  endloop
endfacet
facet normal -1.0 1.5012598395165552e-18 5.1243002522165097e-17
  outer loop
    vertex 0.9295421209504511 -36.16047327536448 14.012468373460942
    vertex 0.9295421209504511 -100.16047327536448 0.01246837346094217
    vertex 0.9295421209504511 -100.16047327536448 14.012468373460942
  endloop
endfacet
facet normal -1.0 1.5012598395165552e-18 5.1243002522165097e-17
  outer loop
    vertex 0.9295421209504511 -100.16047327536448 0.01246837346094217
    vertex 0.9295421209504511 -36.16047327536448 14.012468373460942
    vertex 0.9295421209504511 -36.16047327536448 0.01246837346094217
  endloop
endfacet
facet normal -1.0 0.0 6.186070291551549e-17
  outer loop
    vertex 136.92954212095046 -94.1604732753645 12.012468373460939
    vertex 136.92954212095046 -97.1604732753645 2.012468373460942
    vertex 136.92954212095046 -97.1604732753645 12.012468373460939
  endloop
endfacet
facet normal -1.0 0.0 6.186070291551549e-17
  outer loop
    vertex 136.92954212095046 -97.1604732753645 2.012468373460942
    vertex 136.92954212095046 -94.1604732753645 12.012468373460939
    vertex 136.92954212095046 -94.1604732753645 2.012468373460942
  endloop
endfacet
facet normal -0.6087614290087225 0.7933533402912339 0.0
  outer loop
    vertex 4.368881949170625 -39.59981310358465 17.012468373460944
    vertex 4.679542120950447 -39.36143516968781 2.0124683734609414
    vertex 4.368881949170625 -39.59981310358465 2.0124683734609414
  endloop
endfacet
facet normal -0.6087614290087225 0.7933533402912339 0.0
  outer loop
    vertex 4.679542120950447 -39.36143516968781 2.0124683734609414
    vertex 4.368881949170625 -39.59981310358465 17.012468373460944
    vertex 4.679542120950447 -39.36143516968781 17.012468373460944
  endloop
endfacet
facet normal 0.13052619222005832 -0.9914448613738097 0.0
  outer loop
    vertex 5.817770688604231 -42.10936201479807 17.012468373460944
    vertex 5.429542120950448 -42.16047327536448 2.0124683734609414
    vertex 5.817770688604231 -42.10936201479807 2.0124683734609414
  endloop
endfacet
facet normal 0.13052619222005832 -0.9914448613738097 0.0
  outer loop
    vertex 5.429542120950448 -42.16047327536448 2.0124683734609414
    vertex 5.817770688604231 -42.10936201479807 17.012468373460944
    vertex 5.429542120950448 -42.16047327536448 17.012468373460944
  endloop
endfacet
facet normal -0.9914448613738105 0.13052619222005074 0.0
  outer loop
    vertex 3.9806533815168432 -40.27224470771068 17.012468373460944
    vertex 3.9295421209504457 -40.660473275364474 2.0124683734609414
    vertex 3.9295421209504457 -40.660473275364474 17.012468373460944
  endloop
endfacet
facet normal -0.9914448613738105 0.13052619222005074 0.0
  outer loop
    vertex 3.9295421209504457 -40.660473275364474 2.0124683734609414
    vertex 3.9806533815168432 -40.27224470771068 17.012468373460944
    vertex 3.9806533815168432 -40.27224470771068 2.0124683734609414
  endloop
endfacet
facet normal 0.38268343236508146 0.9238795325112902 0.0
  outer loop
    vertex 5.81777068860423 -39.21158453593087 17.012468373460944
    vertex 6.179542120950449 -39.36143516968781 2.0124683734609414
    vertex 5.81777068860423 -39.21158453593087 2.0124683734609414
  endloop
endfacet
facet normal 0.38268343236508146 0.9238795325112902 0.0
  outer loop
    vertex 6.179542120950449 -39.36143516968781 2.0124683734609414
    vertex 5.81777068860423 -39.21158453593087 17.012468373460944
    vertex 6.179542120950449 -39.36143516968781 17.012468373460944
  endloop
endfacet
endsolid gehäuse meerie light
