solid gehäuse meerie light
facet normal 0.0 0.0 -1.0
  outer loop
    vertex 137.0 62.00000000000001 0.0
    vertex -1.9999999999999996 -1.9999999999999998 0.0
    vertex -1.9999999999999996 62.00000000000001 0.0
  endloop
endfacet
facet normal 0.0 0.0 -1.0
  outer loop
    vertex -1.9999999999999996 -1.9999999999999998 0.0
    vertex 137.0 62.00000000000001 0.0
    vertex 137.0 -1.9999999999999962 0.0
  endloop
endfacet
facet normal 2.5615311018163728e-17 -1.0 -7.830246848220212e-19
  outer loop
    vertex 137.0 -1.9999999999999962 39.99999999999999
    vertex -1.9999999999999996 -1.9999999999999998 0.0
    vertex 137.0 -1.9999999999999962 0.0
  endloop
endfacet
facet normal 2.5615311018163728e-17 -1.0 -7.830246848220212e-19
  outer loop
    vertex -1.9999999999999996 -1.9999999999999998 0.0
    vertex 137.0 -1.9999999999999962 39.99999999999999
    vertex -1.9999999999999996 -1.9999999999999998 39.99999999999999
  endloop
endfacet
facet normal 0.0 0.0 1.0
  outer loop
    vertex 131.05111126056642 57.11177143234624 50.0
    vertex 131.05111126056642 57.8882285676538 50.0
    vertex 131.0 57.50000000000002 50.0
  endloop
endfacet
facet normal 0.0 0.0 1.0
  outer loop
    vertex 131.05111126056642 57.8882285676538 50.0
    vertex 131.05111126056642 57.11177143234624 50.0
    vertex 131.20096189432334 56.75000000000002 50.0
  endloop
endfacet
facet normal 0.0 0.0 1.0
  outer loop
    vertex 131.05111126056642 57.8882285676538 50.0
    vertex 131.20096189432334 56.75000000000002 50.0
    vertex 131.20096189432334 58.250000000000014 50.0
  endloop
endfacet
facet normal 0.0 0.0 1.0
  outer loop
    vertex 131.20096189432334 58.250000000000014 50.0
    vertex 131.20096189432334 56.75000000000002 50.0
    vertex 131.43933982822017 56.43933982822019 50.0
  endloop
endfacet
facet normal 0.0 0.0 1.0
  outer loop
    vertex 131.20096189432334 58.250000000000014 50.0
    vertex 131.43933982822017 56.43933982822019 50.0
    vertex 131.43933982822017 58.560660171779844 50.0
  endloop
endfacet
facet normal 0.0 0.0 1.0
  outer loop
    vertex 131.43933982822017 58.560660171779844 50.0
    vertex 131.43933982822017 56.43933982822019 50.0
    vertex 131.75000000000003 56.20096189432337 50.0
  endloop
endfacet
facet normal 0.0 0.0 1.0
  outer loop
    vertex 131.43933982822017 58.560660171779844 50.0
    vertex 131.75000000000003 56.20096189432337 50.0
    vertex 131.75 58.79903810567667 50.0
  endloop
endfacet
facet normal 0.0 0.0 1.0
  outer loop
    vertex 131.75 58.79903810567667 50.0
    vertex 131.75000000000003 56.20096189432337 50.0
    vertex 132.11177143234622 58.94888873943362 50.0
  endloop
endfacet
facet normal 0.0 0.0 1.0
  outer loop
    vertex 132.11177143234622 58.94888873943362 50.0
    vertex 131.75000000000003 56.20096189432337 50.0
    vertex 132.11177143234622 56.051111260566415 50.0
  endloop
endfacet
facet normal 0.0 0.0 1.0
  outer loop
    vertex 132.11177143234622 58.94888873943362 50.0
    vertex 132.11177143234622 56.051111260566415 50.0
    vertex 132.5 56.00000000000002 50.0
  endloop
endfacet
facet normal 0.0 0.0 1.0
  outer loop
    vertex 132.11177143234622 58.94888873943362 50.0
    vertex 132.5 56.00000000000002 50.0
    vertex 132.5 59.000000000000014 50.0
  endloop
endfacet
facet normal 0.0 0.0 1.0
  outer loop
    vertex 132.5 59.000000000000014 50.0
    vertex 132.5 56.00000000000002 50.0
    vertex 132.88822856765378 56.051111260566415 50.0
  endloop
endfacet
facet normal 0.0 0.0 1.0
  outer loop
    vertex 132.5 59.000000000000014 50.0
    vertex 132.88822856765378 56.051111260566415 50.0
    vertex 132.88822856765378 58.94888873943362 50.0
  endloop
endfacet
facet normal 0.0 0.0 1.0
  outer loop
    vertex 132.88822856765378 58.94888873943362 50.0
    vertex 132.88822856765378 56.051111260566415 50.0
    vertex 133.25000000000003 56.20096189432337 50.0
  endloop
endfacet
facet normal 0.0 0.0 1.0
  outer loop
    vertex 132.88822856765378 58.94888873943362 50.0
    vertex 133.25000000000003 56.20096189432337 50.0
    vertex 133.25 58.79903810567668 50.0
  endloop
endfacet
facet normal 0.0 0.0 1.0
  outer loop
    vertex 133.25 58.79903810567668 50.0
    vertex 133.25000000000003 56.20096189432337 50.0
    vertex 133.56066017177983 58.560660171779844 50.0
  endloop
endfacet
facet normal 0.0 0.0 1.0
  outer loop
    vertex 133.56066017177983 58.560660171779844 50.0
    vertex 133.25000000000003 56.20096189432337 50.0
    vertex 133.56066017177983 56.43933982822019 50.0
  endloop
endfacet
facet normal 0.0 0.0 1.0
  outer loop
    vertex 133.56066017177983 58.560660171779844 50.0
    vertex 133.56066017177983 56.43933982822019 50.0
    vertex 133.79903810567666 56.75000000000002 50.0
  endloop
endfacet
facet normal 0.0 0.0 1.0
  outer loop
    vertex 133.56066017177983 58.560660171779844 50.0
    vertex 133.79903810567666 56.75000000000002 50.0
    vertex 133.79903810567666 58.250000000000014 50.0
  endloop
endfacet
facet normal 0.0 0.0 1.0
  outer loop
    vertex 133.79903810567666 58.250000000000014 50.0
    vertex 133.79903810567666 56.75000000000002 50.0
    vertex 133.9488887394336 57.11177143234624 50.0
  endloop
endfacet
facet normal 0.0 0.0 1.0
  outer loop
    vertex 133.79903810567666 58.250000000000014 50.0
    vertex 133.9488887394336 57.11177143234624 50.0
    vertex 133.9488887394336 57.8882285676538 50.0
  endloop
endfacet
facet normal 0.0 0.0 1.0
  outer loop
    vertex 133.9488887394336 57.8882285676538 50.0
    vertex 133.9488887394336 57.11177143234624 50.0
    vertex 134.0 57.50000000000002 50.0
  endloop
endfacet
facet normal 0.0 1.0 0.0
  outer loop
    vertex -1.9999999999999996 62.00000000000001 39.99999999999999
    vertex 137.0 62.00000000000001 0.0
    vertex -1.9999999999999996 62.00000000000001 0.0
  endloop
endfacet
facet normal 0.0 1.0 0.0
  outer loop
    vertex 137.0 62.00000000000001 0.0
    vertex -1.9999999999999996 62.00000000000001 39.99999999999999
    vertex 137.0 62.00000000000001 39.99999999999999
  endloop
endfacet
facet normal -1.0 -1.0343289803944269e-18 3.617521781430341e-17
  outer loop
    vertex -1.9999999999999996 62.00000000000001 39.99999999999999
    vertex -1.9999999999999996 -1.9999999999999998 0.0
    vertex -1.9999999999999996 -1.9999999999999998 39.99999999999999
  endloop
endfacet
facet normal -1.0 -1.0343289803944269e-18 3.617521781430341e-17
  outer loop
    vertex -1.9999999999999996 -1.9999999999999998 0.0
    vertex -1.9999999999999996 62.00000000000001 39.99999999999999
    vertex -1.9999999999999996 62.00000000000001 0.0
  endloop
endfacet
facet normal 0.0 0.0 1.0
  outer loop
    vertex 135.0 0.0 1.9999999999999998
    vertex 6.0 6.0 1.9999999999999998
    vertex 6.0 0.0 1.9999999999999998
  endloop
endfacet
facet normal 0.0 0.0 1.0
  outer loop
    vertex 6.0 6.0 1.9999999999999998
    vertex 135.0 0.0 1.9999999999999998
    vertex 131.0 57.50000000000002 1.9999999999999991
  endloop
endfacet
facet normal 0.0 0.0 1.0
  outer loop
    vertex 131.0 57.50000000000002 1.9999999999999991
    vertex 135.0 0.0 1.9999999999999998
    vertex 131.05111126056642 57.11177143234624 1.9999999999999991
  endloop
endfacet
facet normal 0.0 0.0 1.0
  outer loop
    vertex 131.05111126056642 57.11177143234624 1.9999999999999991
    vertex 135.0 0.0 1.9999999999999998
    vertex 131.20096189432334 56.75000000000002 1.9999999999999991
  endloop
endfacet
facet normal 0.0 0.0 1.0
  outer loop
    vertex 131.20096189432334 56.75000000000002 1.9999999999999991
    vertex 135.0 0.0 1.9999999999999998
    vertex 131.43933982822017 56.43933982822019 1.9999999999999991
  endloop
endfacet
facet normal 0.0 0.0 1.0
  outer loop
    vertex 131.43933982822017 56.43933982822019 1.9999999999999991
    vertex 135.0 0.0 1.9999999999999998
    vertex 131.75000000000003 56.20096189432337 1.9999999999999991
  endloop
endfacet
facet normal 0.0 0.0 1.0
  outer loop
    vertex 131.75000000000003 56.20096189432337 1.9999999999999991
    vertex 135.0 0.0 1.9999999999999998
    vertex 132.11177143234622 56.051111260566415 1.9999999999999991
  endloop
endfacet
facet normal 0.0 0.0 1.0
  outer loop
    vertex 132.11177143234622 56.051111260566415 1.9999999999999991
    vertex 135.0 0.0 1.9999999999999998
    vertex 132.5 56.00000000000002 1.9999999999999991
  endloop
endfacet
facet normal 0.0 0.0 1.0
  outer loop
    vertex 132.5 56.00000000000002 1.9999999999999991
    vertex 135.0 0.0 1.9999999999999998
    vertex 132.88822856765378 56.051111260566415 1.9999999999999991
  endloop
endfacet
facet normal 0.0 0.0 1.0
  outer loop
    vertex 132.88822856765378 56.051111260566415 1.9999999999999991
    vertex 135.0 0.0 1.9999999999999998
    vertex 133.25000000000003 56.20096189432337 1.9999999999999991
  endloop
endfacet
facet normal 0.0 0.0 1.0
  outer loop
    vertex 133.25000000000003 56.20096189432337 1.9999999999999991
    vertex 135.0 0.0 1.9999999999999998
    vertex 133.56066017177983 56.43933982822019 1.9999999999999991
  endloop
endfacet
facet normal 0.0 0.0 1.0
  outer loop
    vertex 133.56066017177983 56.43933982822019 1.9999999999999991
    vertex 135.0 0.0 1.9999999999999998
    vertex 133.79903810567666 56.75000000000002 1.9999999999999991
  endloop
endfacet
facet normal 0.0 0.0 1.0
  outer loop
    vertex 133.79903810567666 56.75000000000002 1.9999999999999991
    vertex 135.0 0.0 1.9999999999999998
    vertex 133.9488887394336 57.11177143234624 1.9999999999999991
  endloop
endfacet
facet normal 0.0 0.0 1.0
  outer loop
    vertex 133.9488887394336 57.11177143234624 1.9999999999999991
    vertex 135.0 0.0 1.9999999999999998
    vertex 134.0 57.50000000000002 1.9999999999999991
  endloop
endfacet
facet normal 0.0 0.0 1.0
  outer loop
    vertex 6.0 6.0 1.9999999999999998
    vertex 3.524958103184872e-16 60.000000000000014 1.9999999999999998
    vertex 0.0 6.0 1.9999999999999998
  endloop
endfacet
facet normal 0.0 0.0 1.0
  outer loop
    vertex 3.524958103184872e-16 60.000000000000014 1.9999999999999998
    vertex 6.0 6.0 1.9999999999999998
    vertex 131.75 58.79903810567667 1.9999999999999991
  endloop
endfacet
facet normal 0.0 0.0 1.0
  outer loop
    vertex 3.524958103184872e-16 60.000000000000014 1.9999999999999998
    vertex 131.75 58.79903810567667 1.9999999999999991
    vertex 132.11177143234622 58.94888873943362 1.9999999999999991
  endloop
endfacet
facet normal 0.0 0.0 1.0
  outer loop
    vertex 3.524958103184872e-16 60.000000000000014 1.9999999999999998
    vertex 132.11177143234622 58.94888873943362 1.9999999999999991
    vertex 135.0 60.000000000000014 1.9999999999999998
  endloop
endfacet
facet normal 0.0 0.0 1.0
  outer loop
    vertex 131.75 58.79903810567667 1.9999999999999991
    vertex 6.0 6.0 1.9999999999999998
    vertex 131.43933982822017 58.560660171779844 1.9999999999999991
  endloop
endfacet
facet normal 0.0 0.0 1.0
  outer loop
    vertex 131.43933982822017 58.560660171779844 1.9999999999999991
    vertex 6.0 6.0 1.9999999999999998
    vertex 131.20096189432334 58.250000000000014 1.9999999999999991
  endloop
endfacet
facet normal 0.0 0.0 1.0
  outer loop
    vertex 131.20096189432334 58.250000000000014 1.9999999999999991
    vertex 6.0 6.0 1.9999999999999998
    vertex 131.05111126056642 57.8882285676538 1.9999999999999991
  endloop
endfacet
facet normal 0.0 0.0 1.0
  outer loop
    vertex 131.05111126056642 57.8882285676538 1.9999999999999991
    vertex 6.0 6.0 1.9999999999999998
    vertex 131.0 57.50000000000002 1.9999999999999991
  endloop
endfacet
facet normal 0.0 0.0 1.0
  outer loop
    vertex 135.0 60.000000000000014 1.9999999999999998
    vertex 132.11177143234622 58.94888873943362 1.9999999999999991
    vertex 132.5 59.000000000000014 1.9999999999999991
  endloop
endfacet
facet normal 0.0 0.0 1.0
  outer loop
    vertex 135.0 60.000000000000014 1.9999999999999998
    vertex 132.5 59.000000000000014 1.9999999999999991
    vertex 132.88822856765378 58.94888873943362 1.9999999999999991
  endloop
endfacet
facet normal 0.0 0.0 1.0
  outer loop
    vertex 135.0 60.000000000000014 1.9999999999999998
    vertex 132.88822856765378 58.94888873943362 1.9999999999999991
    vertex 133.25 58.79903810567668 1.9999999999999991
  endloop
endfacet
facet normal 0.0 0.0 1.0
  outer loop
    vertex 135.0 60.000000000000014 1.9999999999999998
    vertex 133.25 58.79903810567668 1.9999999999999991
    vertex 133.56066017177983 58.560660171779844 1.9999999999999991
  endloop
endfacet
facet normal 0.0 0.0 1.0
  outer loop
    vertex 135.0 60.000000000000014 1.9999999999999998
    vertex 133.56066017177983 58.560660171779844 1.9999999999999991
    vertex 133.79903810567666 58.250000000000014 1.9999999999999991
  endloop
endfacet
facet normal 0.0 0.0 1.0
  outer loop
    vertex 135.0 60.000000000000014 1.9999999999999998
    vertex 133.79903810567666 58.250000000000014 1.9999999999999991
    vertex 133.9488887394336 57.8882285676538 1.9999999999999991
  endloop
endfacet
facet normal 0.0 0.0 1.0
  outer loop
    vertex 135.0 60.000000000000014 1.9999999999999998
    vertex 133.9488887394336 57.8882285676538 1.9999999999999991
    vertex 134.0 57.50000000000002 1.9999999999999991
  endloop
endfacet
facet normal 0.0 0.0 1.0
  outer loop
    vertex 135.0 60.000000000000014 1.9999999999999998
    vertex 134.0 57.50000000000002 1.9999999999999991
    vertex 135.0 0.0 1.9999999999999998
  endloop
endfacet
facet normal 0.0 0.0 1.0
  outer loop
    vertex 3.9999999999999996 0.9999999999999999 1.9999999999999998
    vertex 0.9999999999999999 3.9999999999999996 1.9999999999999998
    vertex 0.9999999999999999 0.9999999999999999 1.9999999999999998
  endloop
endfacet
facet normal 0.0 0.0 1.0
  outer loop
    vertex 0.9999999999999999 3.9999999999999996 1.9999999999999998
    vertex 3.9999999999999996 0.9999999999999999 1.9999999999999998
    vertex 3.9999999999999996 3.9999999999999996 1.9999999999999998
  endloop
endfacet
facet normal 0.0 -1.0 0.0
  outer loop
    vertex 137.0 22.999999999999996 39.99999999999999
    vertex 135.0 22.999999999999996 21.999999999999996
    vertex 137.0 22.999999999999996 21.999999999999996
  endloop
endfacet
facet normal 0.0 -1.0 0.0
  outer loop
    vertex 135.0 22.999999999999996 21.999999999999996
    vertex 137.0 22.999999999999996 39.99999999999999
    vertex 135.0 22.999999999999996 39.99999999999999
  endloop
endfacet
facet normal 0.0 -1.0 0.0
  outer loop
    vertex 135.0 22.999999999999996 39.99999999999999
    vertex 137.0 22.999999999999996 39.99999999999999
    vertex 135.961269228874 22.999999999999996 39.99999999999999
  endloop
endfacet
facet normal 1.0 0.0 1.697825844986721e-17
  outer loop
    vertex 6.0 6.0 1.9999999999999998
    vertex 5.999999999999999 3.524958103184872e-16 42.00000000000001
    vertex 6.0 0.0 1.9999999999999998
  endloop
endfacet
facet normal 1.0 0.0 1.697825844986721e-17
  outer loop
    vertex 5.999999999999999 3.524958103184872e-16 42.00000000000001
    vertex 6.0 6.0 1.9999999999999998
    vertex 5.999999999999999 6.0 42.00000000000001
  endloop
endfacet
facet normal 0.0 1.0 -8.054007348650218e-18
  outer loop
    vertex 5.999999999999999 3.524958103184872e-16 42.00000000000001
    vertex 135.0 0.0 1.9999999999999998
    vertex 6.0 0.0 1.9999999999999998
  endloop
endfacet
facet normal 0.0 1.0 -8.054007348650218e-18
  outer loop
    vertex 135.0 0.0 1.9999999999999998
    vertex 5.999999999999999 3.524958103184872e-16 42.00000000000001
    vertex 135.0 3.524958103184872e-16 42.00000000000001
  endloop
endfacet
facet normal 0.0 -1.0 8.054007348650218e-18
  outer loop
    vertex 135.0 60.000000000000014 42.00000000000001
    vertex 3.524958103184872e-16 60.000000000000014 1.9999999999999998
    vertex 135.0 60.000000000000014 1.9999999999999998
  endloop
endfacet
facet normal 0.0 -1.0 8.054007348650218e-18
  outer loop
    vertex 3.524958103184872e-16 60.000000000000014 1.9999999999999998
    vertex 135.0 60.000000000000014 42.00000000000001
    vertex -3.524958103184872e-16 60.000000000000014 42.00000000000001
  endloop
endfacet
facet normal -1.0 -0.0 -1.6978258449867206e-17
  outer loop
    vertex 3.9999999999999996 3.9999999999999996 42.00000000000001
    vertex 3.9999999999999996 0.9999999999999999 1.9999999999999998
    vertex 3.9999999999999996 0.9999999999999999 42.00000000000001
  endloop
endfacet
facet normal -1.0 -0.0 -1.6978258449867206e-17
  outer loop
    vertex 3.9999999999999996 0.9999999999999999 1.9999999999999998
    vertex 3.9999999999999996 3.9999999999999996 42.00000000000001
    vertex 3.9999999999999996 3.9999999999999996 1.9999999999999998
  endloop
endfacet
facet normal 1.0 0.0 1.6978258449867206e-17
  outer loop
    vertex 0.9999999999999999 3.9999999999999996 1.9999999999999998
    vertex 0.9999999999999996 0.9999999999999999 42.00000000000001
    vertex 0.9999999999999999 0.9999999999999999 1.9999999999999998
  endloop
endfacet
facet normal 1.0 0.0 1.6978258449867206e-17
  outer loop
    vertex 0.9999999999999996 0.9999999999999999 42.00000000000001
    vertex 0.9999999999999999 3.9999999999999996 1.9999999999999998
    vertex 0.9999999999999996 3.9999999999999996 42.00000000000001
  endloop
endfacet
facet normal 0.0 1.0 -8.054007348650218e-18
  outer loop
    vertex 0.9999999999999996 0.9999999999999999 42.00000000000001
    vertex 3.9999999999999996 0.9999999999999999 1.9999999999999998
    vertex 0.9999999999999999 0.9999999999999999 1.9999999999999998
  endloop
endfacet
facet normal 0.0 1.0 -8.054007348650218e-18
  outer loop
    vertex 3.9999999999999996 0.9999999999999999 1.9999999999999998
    vertex 0.9999999999999996 0.9999999999999999 42.00000000000001
    vertex 3.9999999999999996 0.9999999999999999 42.00000000000001
  endloop
endfacet
facet normal 0.0 0.0 1.0
  outer loop
    vertex 137.0 22.999999999999996 39.99999999999999
    vertex 135.961269228874 32.99999999999999 39.99999999999999
    vertex 135.961269228874 22.999999999999996 39.99999999999999
  endloop
endfacet
facet normal 0.0 0.0 1.0
  outer loop
    vertex 135.961269228874 32.99999999999999 39.99999999999999
    vertex 137.0 22.999999999999996 39.99999999999999
    vertex 137.0 32.99999999999999 39.99999999999999
  endloop
endfacet
facet normal -0.0 -0.0 -1.0
  outer loop
    vertex 135.961269228874 22.999999999999996 39.99999999999999
    vertex 135.0 13.000000000000002 39.99999999999999
    vertex 135.0 22.999999999999996 39.99999999999999
  endloop
endfacet
facet normal -0.0 -0.0 -1.0
  outer loop
    vertex 135.0 13.000000000000002 39.99999999999999
    vertex 135.961269228874 22.999999999999996 39.99999999999999
    vertex 135.961269228874 13.000000000000002 39.99999999999999
  endloop
endfacet
facet normal 1.0 0.0 0.0
  outer loop
    vertex 135.961269228874 61.000000000000014 39.99999999999999
    vertex 135.961269228874 60.000000000000014 42.00000000000001
    vertex 135.961269228874 60.000000000000014 39.99999999999999
  endloop
endfacet
facet normal 1.0 0.0 0.0
  outer loop
    vertex 135.961269228874 60.000000000000014 42.00000000000001
    vertex 135.961269228874 61.000000000000014 39.99999999999999
    vertex 135.961269228874 61.000000000000014 42.00000000000001
  endloop
endfacet
facet normal 3.3527186775741744e-17 -1.0 8.054007348650218e-18
  outer loop
    vertex 135.961269228874 -0.6968376723137347 42.00000000000001
    vertex -0.7172288745194026 -0.6968376723137395 39.99999999999999
    vertex 135.961269228874 -0.6968376723137348 39.99999999999999
  endloop
endfacet
facet normal 3.3527186775741744e-17 -1.0 8.054007348650218e-18
  outer loop
    vertex -0.7172288745194026 -0.6968376723137395 39.99999999999999
    vertex 135.961269228874 -0.6968376723137347 42.00000000000001
    vertex -0.7172288745194032 -0.6968376723137393 42.00000000000001
  endloop
endfacet
facet normal 1.038570033351509e-34 1.0 -8.054007348650218e-18
  outer loop
    vertex -0.7172288745194032 61.000000000000014 42.00000000000001
    vertex 135.961269228874 61.000000000000014 39.99999999999999
    vertex -0.7172288745194026 61.000000000000014 39.99999999999999
  endloop
endfacet
facet normal 1.038570033351509e-34 1.0 -8.054007348650218e-18
  outer loop
    vertex 135.961269228874 61.000000000000014 39.99999999999999
    vertex -0.7172288745194032 61.000000000000014 42.00000000000001
    vertex 135.961269228874 61.000000000000014 42.00000000000001
  endloop
endfacet
facet normal -1.6978258449867206e-17 8.054007348650218e-18 1.0
  outer loop
    vertex -0.7172288745194032 -0.6968376723137393 42.00000000000001
    vertex -7.049916206369744e-16 6.0 42.00000000000001
    vertex -0.7172288745194032 61.000000000000014 42.00000000000001
  endloop
endfacet
facet normal -1.6978258449867206e-17 8.054007348650218e-18 1.0
  outer loop
    vertex -7.049916206369744e-16 6.0 42.00000000000001
    vertex -0.7172288745194032 -0.6968376723137393 42.00000000000001
    vertex 0.9999999999999996 0.9999999999999999 42.00000000000001
  endloop
endfacet
facet normal -1.6978258449867206e-17 8.054007348650218e-18 1.0
  outer loop
    vertex 0.9999999999999996 0.9999999999999999 42.00000000000001
    vertex -0.7172288745194032 -0.6968376723137393 42.00000000000001
    vertex 5.999999999999999 3.524958103184872e-16 42.00000000000001
  endloop
endfacet
facet normal -1.6978258449867206e-17 8.054007348650218e-18 1.0
  outer loop
    vertex 5.999999999999999 3.524958103184872e-16 42.00000000000001
    vertex -0.7172288745194032 -0.6968376723137393 42.00000000000001
    vertex 135.961269228874 -0.6968376723137347 42.00000000000001
  endloop
endfacet
facet normal -1.6978258449867206e-17 8.054007348650218e-18 1.0
  outer loop
    vertex 0.9999999999999996 0.9999999999999999 42.00000000000001
    vertex 5.999999999999999 3.524958103184872e-16 42.00000000000001
    vertex 3.9999999999999996 0.9999999999999999 42.00000000000001
  endloop
endfacet
facet normal -1.6978258449867206e-17 8.054007348650218e-18 1.0
  outer loop
    vertex 3.9999999999999996 0.9999999999999999 42.00000000000001
    vertex 5.999999999999999 3.524958103184872e-16 42.00000000000001
    vertex 3.9999999999999996 3.9999999999999996 42.00000000000001
  endloop
endfacet
facet normal -1.6978258449867206e-17 8.054007348650218e-18 1.0
  outer loop
    vertex 5.999999999999999 3.524958103184872e-16 42.00000000000001
    vertex 135.961269228874 -0.6968376723137347 42.00000000000001
    vertex 135.0 3.524958103184872e-16 42.00000000000001
  endloop
endfacet
facet normal -1.6978258449867206e-17 8.054007348650218e-18 1.0
  outer loop
    vertex 135.0 3.524958103184872e-16 42.00000000000001
    vertex 135.961269228874 -0.6968376723137347 42.00000000000001
    vertex 135.0 60.000000000000014 42.00000000000001
  endloop
endfacet
facet normal -1.6978258449867206e-17 8.054007348650218e-18 1.0
  outer loop
    vertex -0.7172288745194032 61.000000000000014 42.00000000000001
    vertex -3.524958103184872e-16 60.000000000000014 42.00000000000001
    vertex 135.961269228874 61.000000000000014 42.00000000000001
  endloop
endfacet
facet normal -1.6978258449867206e-17 8.054007348650218e-18 1.0
  outer loop
    vertex -3.524958103184872e-16 60.000000000000014 42.00000000000001
    vertex -0.7172288745194032 61.000000000000014 42.00000000000001
    vertex -7.049916206369744e-16 6.0 42.00000000000001
  endloop
endfacet
facet normal -1.6978258449867206e-17 8.054007348650218e-18 1.0
  outer loop
    vertex 135.961269228874 61.000000000000014 42.00000000000001
    vertex -3.524958103184872e-16 60.000000000000014 42.00000000000001
    vertex 135.0 60.000000000000014 42.00000000000001
  endloop
endfacet
facet normal -1.6978258449867206e-17 8.054007348650218e-18 1.0
  outer loop
    vertex 135.961269228874 61.000000000000014 42.00000000000001
    vertex 135.0 60.000000000000014 42.00000000000001
    vertex 135.961269228874 -0.6968376723137347 42.00000000000001
  endloop
endfacet
facet normal -1.6978258449867206e-17 8.054007348650218e-18 1.0
  outer loop
    vertex 135.961269228874 61.000000000000014 42.00000000000001
    vertex 135.961269228874 -0.6968376723137347 42.00000000000001
    vertex 135.961269228874 60.000000000000014 42.00000000000001
  endloop
endfacet
facet normal -1.6978258449867206e-17 8.054007348650218e-18 1.0
  outer loop
    vertex -7.049916206369744e-16 6.0 42.00000000000001
    vertex 0.9999999999999996 3.9999999999999996 42.00000000000001
    vertex 5.999999999999999 6.0 42.00000000000001
  endloop
endfacet
facet normal -1.6978258449867206e-17 8.054007348650218e-18 1.0
  outer loop
    vertex 0.9999999999999996 3.9999999999999996 42.00000000000001
    vertex -7.049916206369744e-16 6.0 42.00000000000001
    vertex 0.9999999999999996 0.9999999999999999 42.00000000000001
  endloop
endfacet
facet normal -1.6978258449867206e-17 8.054007348650218e-18 1.0
  outer loop
    vertex 5.999999999999999 6.0 42.00000000000001
    vertex 0.9999999999999996 3.9999999999999996 42.00000000000001
    vertex 3.9999999999999996 3.9999999999999996 42.00000000000001
  endloop
endfacet
facet normal -1.6978258449867206e-17 8.054007348650218e-18 1.0
  outer loop
    vertex 5.999999999999999 6.0 42.00000000000001
    vertex 3.9999999999999996 3.9999999999999996 42.00000000000001
    vertex 5.999999999999999 3.524958103184872e-16 42.00000000000001
  endloop
endfacet
facet normal 0.0 -1.0 8.054007348650218e-18
  outer loop
    vertex 3.9999999999999996 3.9999999999999996 42.00000000000001
    vertex 0.9999999999999999 3.9999999999999996 1.9999999999999998
    vertex 3.9999999999999996 3.9999999999999996 1.9999999999999998
  endloop
endfacet
facet normal 0.0 -1.0 8.054007348650218e-18
  outer loop
    vertex 0.9999999999999999 3.9999999999999996 1.9999999999999998
    vertex 3.9999999999999996 3.9999999999999996 42.00000000000001
    vertex 0.9999999999999996 3.9999999999999996 42.00000000000001
  endloop
endfacet
facet normal -0.3826834323650952 0.9238795325112845 0.0
  outer loop
    vertex 131.75 58.79903810567667 50.0
    vertex 132.11177143234622 58.94888873943362 1.9999999999999991
    vertex 131.75 58.79903810567667 1.9999999999999991
  endloop
endfacet
facet normal -0.3826834323650952 0.9238795325112845 0.0
  outer loop
    vertex 132.11177143234622 58.94888873943362 1.9999999999999991
    vertex 131.75 58.79903810567667 50.0
    vertex 132.11177143234622 58.94888873943362 50.0
  endloop
endfacet
facet normal -0.13052619222004555 0.9914448613738113 0.0
  outer loop
    vertex 132.11177143234622 58.94888873943362 50.0
    vertex 132.5 59.000000000000014 1.9999999999999991
    vertex 132.11177143234622 58.94888873943362 1.9999999999999991
  endloop
endfacet
facet normal -0.13052619222004555 0.9914448613738113 0.0
  outer loop
    vertex 132.5 59.000000000000014 1.9999999999999991
    vertex 132.11177143234622 58.94888873943362 50.0
    vertex 132.5 59.000000000000014 50.0
  endloop
endfacet
facet normal 0.13052619222004555 0.9914448613738113 0.0
  outer loop
    vertex 132.5 59.000000000000014 50.0
    vertex 132.88822856765378 58.94888873943362 1.9999999999999991
    vertex 132.5 59.000000000000014 1.9999999999999991
  endloop
endfacet
facet normal 0.13052619222004555 0.9914448613738113 0.0
  outer loop
    vertex 132.88822856765378 58.94888873943362 1.9999999999999991
    vertex 132.5 59.000000000000014 50.0
    vertex 132.88822856765378 58.94888873943362 50.0
  endloop
endfacet
facet normal 0.382683432365091 0.9238795325112863 0.0
  outer loop
    vertex 132.88822856765378 58.94888873943362 50.0
    vertex 133.25 58.79903810567668 1.9999999999999991
    vertex 132.88822856765378 58.94888873943362 1.9999999999999991
  endloop
endfacet
facet normal 0.382683432365091 0.9238795325112863 0.0
  outer loop
    vertex 133.25 58.79903810567668 1.9999999999999991
    vertex 132.88822856765378 58.94888873943362 50.0
    vertex 133.25 58.79903810567668 50.0
  endloop
endfacet
facet normal 0.6087614290087033 0.7933533402912485 0.0
  outer loop
    vertex 133.25 58.79903810567668 50.0
    vertex 133.56066017177983 58.560660171779844 1.9999999999999991
    vertex 133.25 58.79903810567668 1.9999999999999991
  endloop
endfacet
facet normal 0.6087614290087033 0.7933533402912485 0.0
  outer loop
    vertex 133.56066017177983 58.560660171779844 1.9999999999999991
    vertex 133.25 58.79903810567668 50.0
    vertex 133.56066017177983 58.560660171779844 50.0
  endloop
endfacet
facet normal 0.7933533402912517 0.6087614290086991 0.0
  outer loop
    vertex 133.56066017177983 58.560660171779844 1.9999999999999991
    vertex 133.79903810567666 58.250000000000014 50.0
    vertex 133.79903810567666 58.250000000000014 1.9999999999999991
  endloop
endfacet
facet normal 0.7933533402912517 0.6087614290086991 0.0
  outer loop
    vertex 133.79903810567666 58.250000000000014 50.0
    vertex 133.56066017177983 58.560660171779844 1.9999999999999991
    vertex 133.56066017177983 58.560660171779844 50.0
  endloop
endfacet
facet normal 0.9238795325112803 0.3826834323651054 0.0
  outer loop
    vertex 133.79903810567666 58.250000000000014 1.9999999999999991
    vertex 133.9488887394336 57.8882285676538 50.0
    vertex 133.9488887394336 57.8882285676538 1.9999999999999991
  endloop
endfacet
facet normal 0.9238795325112803 0.3826834323651054 0.0
  outer loop
    vertex 133.9488887394336 57.8882285676538 50.0
    vertex 133.79903810567666 58.250000000000014 1.9999999999999991
    vertex 133.79903810567666 58.250000000000014 50.0
  endloop
endfacet
facet normal 0.0 1.0 -8.054007348650218e-18
  outer loop
    vertex -7.049916206369744e-16 6.0 42.00000000000001
    vertex 6.0 6.0 1.9999999999999998
    vertex 0.0 6.0 1.9999999999999998
  endloop
endfacet
facet normal 0.0 1.0 -8.054007348650218e-18
  outer loop
    vertex 6.0 6.0 1.9999999999999998
    vertex -7.049916206369744e-16 6.0 42.00000000000001
    vertex 5.999999999999999 6.0 42.00000000000001
  endloop
endfacet
facet normal 0.0 0.0 1.0
  outer loop
    vertex -1.9999999999999996 -1.9999999999999998 39.99999999999999
    vertex -0.7172288745194026 -0.6968376723137395 39.99999999999999
    vertex -1.9999999999999996 62.00000000000001 39.99999999999999
  endloop
endfacet
facet normal 0.0 0.0 1.0
  outer loop
    vertex -0.7172288745194026 -0.6968376723137395 39.99999999999999
    vertex -1.9999999999999996 -1.9999999999999998 39.99999999999999
    vertex 137.0 -1.9999999999999962 39.99999999999999
  endloop
endfacet
facet normal 0.0 0.0 1.0
  outer loop
    vertex -0.7172288745194026 -0.6968376723137395 39.99999999999999
    vertex 137.0 -1.9999999999999962 39.99999999999999
    vertex 135.961269228874 -0.6968376723137348 39.99999999999999
  endloop
endfacet
facet normal 0.0 0.0 1.0
  outer loop
    vertex 135.961269228874 -0.6968376723137348 39.99999999999999
    vertex 137.0 -1.9999999999999962 39.99999999999999
    vertex 135.961269228874 13.000000000000002 39.99999999999999
  endloop
endfacet
facet normal 0.0 0.0 1.0
  outer loop
    vertex 135.961269228874 13.000000000000002 39.99999999999999
    vertex 137.0 -1.9999999999999962 39.99999999999999
    vertex 137.0 13.000000000000002 39.99999999999999
  endloop
endfacet
facet normal 0.0 0.0 1.0
  outer loop
    vertex 137.0 48.0 39.99999999999999
    vertex 135.961269228874 60.000000000000014 39.99999999999999
    vertex 135.961269228874 48.0 39.99999999999999
  endloop
endfacet
facet normal 0.0 0.0 1.0
  outer loop
    vertex 135.961269228874 60.000000000000014 39.99999999999999
    vertex 137.0 48.0 39.99999999999999
    vertex 135.961269228874 61.000000000000014 39.99999999999999
  endloop
endfacet
facet normal 0.0 0.0 1.0
  outer loop
    vertex -1.9999999999999996 62.00000000000001 39.99999999999999
    vertex -0.7172288745194026 61.000000000000014 39.99999999999999
    vertex 137.0 62.00000000000001 39.99999999999999
  endloop
endfacet
facet normal 0.0 0.0 1.0
  outer loop
    vertex -0.7172288745194026 61.000000000000014 39.99999999999999
    vertex -1.9999999999999996 62.00000000000001 39.99999999999999
    vertex -0.7172288745194026 -0.6968376723137395 39.99999999999999
  endloop
endfacet
facet normal 0.0 0.0 1.0
  outer loop
    vertex 137.0 62.00000000000001 39.99999999999999
    vertex -0.7172288745194026 61.000000000000014 39.99999999999999
    vertex 135.961269228874 61.000000000000014 39.99999999999999
  endloop
endfacet
facet normal 0.0 0.0 1.0
  outer loop
    vertex 137.0 62.00000000000001 39.99999999999999
    vertex 135.961269228874 61.000000000000014 39.99999999999999
    vertex 137.0 48.0 39.99999999999999
  endloop
endfacet
facet normal 0.9914448613738113 -0.13052619222004555 0.0
  outer loop
    vertex 134.0 57.50000000000002 1.9999999999999991
    vertex 133.9488887394336 57.11177143234624 50.0
    vertex 133.9488887394336 57.11177143234624 1.9999999999999991
  endloop
endfacet
facet normal 0.9914448613738113 -0.13052619222004555 0.0
  outer loop
    vertex 133.9488887394336 57.11177143234624 50.0
    vertex 134.0 57.50000000000002 1.9999999999999991
    vertex 134.0 57.50000000000002 50.0
  endloop
endfacet
facet normal 0.9238795325112803 -0.3826834323651054 0.0
  outer loop
    vertex 133.9488887394336 57.11177143234624 1.9999999999999991
    vertex 133.79903810567666 56.75000000000002 50.0
    vertex 133.79903810567666 56.75000000000002 1.9999999999999991
  endloop
endfacet
facet normal 0.9238795325112803 -0.3826834323651054 0.0
  outer loop
    vertex 133.79903810567666 56.75000000000002 50.0
    vertex 133.9488887394336 57.11177143234624 1.9999999999999991
    vertex 133.9488887394336 57.11177143234624 50.0
  endloop
endfacet
facet normal 0.7933533402912517 -0.6087614290086991 0.0
  outer loop
    vertex 133.79903810567666 56.75000000000002 1.9999999999999991
    vertex 133.56066017177983 56.43933982822019 50.0
    vertex 133.56066017177983 56.43933982822019 1.9999999999999991
  endloop
endfacet
facet normal 0.7933533402912517 -0.6087614290086991 0.0
  outer loop
    vertex 133.56066017177983 56.43933982822019 50.0
    vertex 133.79903810567666 56.75000000000002 1.9999999999999991
    vertex 133.79903810567666 56.75000000000002 50.0
  endloop
endfacet
facet normal 0.6087614290087131 -0.7933533402912412 0.0
  outer loop
    vertex 133.56066017177983 56.43933982822019 50.0
    vertex 133.25000000000003 56.20096189432337 1.9999999999999991
    vertex 133.56066017177983 56.43933982822019 1.9999999999999991
  endloop
endfacet
facet normal 0.6087614290087131 -0.7933533402912412 0.0
  outer loop
    vertex 133.25000000000003 56.20096189432337 1.9999999999999991
    vertex 133.56066017177983 56.43933982822019 50.0
    vertex 133.25000000000003 56.20096189432337 50.0
  endloop
endfacet
facet normal 1.0 0.0 0.0
  outer loop
    vertex 135.961269228874 13.000000000000002 39.99999999999999
    vertex 135.961269228874 -0.6968376723137347 42.00000000000001
    vertex 135.961269228874 -0.6968376723137348 39.99999999999999
  endloop
endfacet
facet normal 1.0 0.0 0.0
  outer loop
    vertex 135.961269228874 -0.6968376723137347 42.00000000000001
    vertex 135.961269228874 13.000000000000002 39.99999999999999
    vertex 135.961269228874 60.000000000000014 42.00000000000001
  endloop
endfacet
facet normal 1.0 0.0 0.0
  outer loop
    vertex 135.961269228874 60.000000000000014 42.00000000000001
    vertex 135.961269228874 13.000000000000002 39.99999999999999
    vertex 135.961269228874 22.999999999999996 39.99999999999999
  endloop
endfacet
facet normal 1.0 0.0 0.0
  outer loop
    vertex 135.961269228874 60.000000000000014 42.00000000000001
    vertex 135.961269228874 22.999999999999996 39.99999999999999
    vertex 135.961269228874 32.99999999999999 39.99999999999999
  endloop
endfacet
facet normal 1.0 0.0 0.0
  outer loop
    vertex 135.961269228874 60.000000000000014 42.00000000000001
    vertex 135.961269228874 32.99999999999999 39.99999999999999
    vertex 135.961269228874 48.0 39.99999999999999
  endloop
endfacet
facet normal 1.0 0.0 0.0
  outer loop
    vertex 135.961269228874 60.000000000000014 42.00000000000001
    vertex 135.961269228874 48.0 39.99999999999999
    vertex 135.961269228874 60.000000000000014 39.99999999999999
  endloop
endfacet
facet normal 0.0 1.0 0.0
  outer loop
    vertex 135.0 13.000000000000002 39.99999999999999
    vertex 137.0 13.000000000000002 21.999999999999996
    vertex 135.0 13.000000000000002 21.999999999999996
  endloop
endfacet
facet normal 0.0 1.0 0.0
  outer loop
    vertex 137.0 13.000000000000002 21.999999999999996
    vertex 135.0 13.000000000000002 39.99999999999999
    vertex 137.0 13.000000000000002 39.99999999999999
  endloop
endfacet
facet normal 0.0 1.0 0.0
  outer loop
    vertex 137.0 13.000000000000002 39.99999999999999
    vertex 135.0 13.000000000000002 39.99999999999999
    vertex 135.961269228874 13.000000000000002 39.99999999999999
  endloop
endfacet
facet normal -1.0 -0.0 -1.6978258449867206e-17
  outer loop
    vertex 135.0 60.000000000000014 42.00000000000001
    vertex 135.0 13.000000000000002 39.99999999999999
    vertex 135.0 3.524958103184872e-16 42.00000000000001
  endloop
endfacet
facet normal -1.0 -0.0 -1.6978258449867206e-17
  outer loop
    vertex 135.0 13.000000000000002 39.99999999999999
    vertex 135.0 60.000000000000014 42.00000000000001
    vertex 135.0 22.999999999999996 39.99999999999999
  endloop
endfacet
facet normal -1.0 -0.0 -1.6978258449867206e-17
  outer loop
    vertex 135.0 22.999999999999996 39.99999999999999
    vertex 135.0 60.000000000000014 42.00000000000001
    vertex 135.0 32.99999999999999 39.99999999999999
  endloop
endfacet
facet normal -1.0 -0.0 -1.6978258449867206e-17
  outer loop
    vertex 135.0 22.999999999999996 39.99999999999999
    vertex 135.0 32.99999999999999 39.99999999999999
    vertex 135.0 22.999999999999996 21.999999999999996
  endloop
endfacet
facet normal -1.0 -0.0 -1.6978258449867206e-17
  outer loop
    vertex 135.0 32.99999999999999 39.99999999999999
    vertex 135.0 60.000000000000014 42.00000000000001
    vertex 135.0 48.0 39.99999999999999
  endloop
endfacet
facet normal -1.0 -0.0 -1.6978258449867206e-17
  outer loop
    vertex 135.0 48.0 39.99999999999999
    vertex 135.0 60.000000000000014 42.00000000000001
    vertex 135.0 48.0 20.999999999999996
  endloop
endfacet
facet normal -1.0 -0.0 -1.6978258449867206e-17
  outer loop
    vertex 135.0 0.0 1.9999999999999998
    vertex 135.0 13.000000000000002 21.999999999999996
    vertex 135.0 60.000000000000014 1.9999999999999998
  endloop
endfacet
facet normal -1.0 -0.0 -1.6978258449867206e-17
  outer loop
    vertex 135.0 13.000000000000002 21.999999999999996
    vertex 135.0 0.0 1.9999999999999998
    vertex 135.0 3.524958103184872e-16 42.00000000000001
  endloop
endfacet
facet normal -1.0 -0.0 -1.6978258449867206e-17
  outer loop
    vertex 135.0 13.000000000000002 21.999999999999996
    vertex 135.0 3.524958103184872e-16 42.00000000000001
    vertex 135.0 13.000000000000002 39.99999999999999
  endloop
endfacet
facet normal -1.0 -0.0 -1.6978258449867206e-17
  outer loop
    vertex 135.0 60.000000000000014 1.9999999999999998
    vertex 135.0 13.000000000000002 21.999999999999996
    vertex 135.0 22.999999999999996 21.999999999999996
  endloop
endfacet
facet normal -1.0 -0.0 -1.6978258449867206e-17
  outer loop
    vertex 135.0 60.000000000000014 1.9999999999999998
    vertex 135.0 22.999999999999996 21.999999999999996
    vertex 135.0 32.99999999999999 20.999999999999996
  endloop
endfacet
facet normal -1.0 -0.0 -1.6978258449867206e-17
  outer loop
    vertex 135.0 32.99999999999999 20.999999999999996
    vertex 135.0 22.999999999999996 21.999999999999996
    vertex 135.0 32.99999999999999 39.99999999999999
  endloop
endfacet
facet normal -1.0 -0.0 -1.6978258449867206e-17
  outer loop
    vertex 135.0 60.000000000000014 1.9999999999999998
    vertex 135.0 32.99999999999999 20.999999999999996
    vertex 135.0 48.0 20.999999999999996
  endloop
endfacet
facet normal -1.0 -0.0 -1.6978258449867206e-17
  outer loop
    vertex 135.0 60.000000000000014 1.9999999999999998
    vertex 135.0 48.0 20.999999999999996
    vertex 135.0 60.000000000000014 42.00000000000001
  endloop
endfacet
facet normal 0.0 -1.0 0.0
  outer loop
    vertex 137.0 48.0 39.99999999999999
    vertex 135.0 48.0 20.999999999999996
    vertex 137.0 48.0 20.999999999999996
  endloop
endfacet
facet normal 0.0 -1.0 0.0
  outer loop
    vertex 135.0 48.0 20.999999999999996
    vertex 137.0 48.0 39.99999999999999
    vertex 135.0 48.0 39.99999999999999
  endloop
endfacet
facet normal 0.0 -1.0 0.0
  outer loop
    vertex 135.0 48.0 39.99999999999999
    vertex 137.0 48.0 39.99999999999999
    vertex 135.961269228874 48.0 39.99999999999999
  endloop
endfacet
facet normal -0.3826834323651156 -0.9238795325112762 -0.0
  outer loop
    vertex 132.11177143234622 56.051111260566415 50.0
    vertex 131.75000000000003 56.20096189432337 1.9999999999999991
    vertex 132.11177143234622 56.051111260566415 1.9999999999999991
  endloop
endfacet
facet normal -0.3826834323651156 -0.9238795325112762 -0.0
  outer loop
    vertex 131.75000000000003 56.20096189432337 1.9999999999999991
    vertex 132.11177143234622 56.051111260566415 50.0
    vertex 131.75000000000003 56.20096189432337 50.0
  endloop
endfacet
facet normal -0.6087614290086852 -0.7933533402912625 -0.0
  outer loop
    vertex 131.75000000000003 56.20096189432337 50.0
    vertex 131.43933982822017 56.43933982822019 1.9999999999999991
    vertex 131.75000000000003 56.20096189432337 1.9999999999999991
  endloop
endfacet
facet normal -0.6087614290086852 -0.7933533402912625 -0.0
  outer loop
    vertex 131.43933982822017 56.43933982822019 1.9999999999999991
    vertex 131.75000000000003 56.20096189432337 50.0
    vertex 131.43933982822017 56.43933982822019 50.0
  endloop
endfacet
facet normal 0.9914448613738113 0.13052619222004555 0.0
  outer loop
    vertex 133.9488887394336 57.8882285676538 1.9999999999999991
    vertex 134.0 57.50000000000002 50.0
    vertex 134.0 57.50000000000002 1.9999999999999991
  endloop
endfacet
facet normal 0.9914448613738113 0.13052619222004555 0.0
  outer loop
    vertex 134.0 57.50000000000002 50.0
    vertex 133.9488887394336 57.8882285676538 1.9999999999999991
    vertex 133.9488887394336 57.8882285676538 50.0
  endloop
endfacet
facet normal 0.0 0.0 1.0
  outer loop
    vertex 137.0 32.99999999999999 20.999999999999996
    vertex 135.0 48.0 20.999999999999996
    vertex 135.0 32.99999999999999 20.999999999999996
  endloop
endfacet
facet normal 0.0 0.0 1.0
  outer loop
    vertex 135.0 48.0 20.999999999999996
    vertex 137.0 32.99999999999999 20.999999999999996
    vertex 137.0 48.0 20.999999999999996
  endloop
endfacet
facet normal -0.0 -0.0 -1.0
  outer loop
    vertex 135.961269228874 48.0 39.99999999999999
    vertex 135.0 32.99999999999999 39.99999999999999
    vertex 135.0 48.0 39.99999999999999
  endloop
endfacet
facet normal -0.0 -0.0 -1.0
  outer loop
    vertex 135.0 32.99999999999999 39.99999999999999
    vertex 135.961269228874 48.0 39.99999999999999
    vertex 135.961269228874 32.99999999999999 39.99999999999999
  endloop
endfacet
facet normal 0.0 1.0 0.0
  outer loop
    vertex 135.0 32.99999999999999 39.99999999999999
    vertex 137.0 32.99999999999999 20.999999999999996
    vertex 135.0 32.99999999999999 20.999999999999996
  endloop
endfacet
facet normal 0.0 1.0 0.0
  outer loop
    vertex 137.0 32.99999999999999 20.999999999999996
    vertex 135.0 32.99999999999999 39.99999999999999
    vertex 137.0 32.99999999999999 39.99999999999999
  endloop
endfacet
facet normal 0.0 1.0 0.0
  outer loop
    vertex 137.0 32.99999999999999 39.99999999999999
    vertex 135.0 32.99999999999999 39.99999999999999
    vertex 135.961269228874 32.99999999999999 39.99999999999999
  endloop
endfacet
facet normal 0.0 0.0 1.0
  outer loop
    vertex 137.0 13.000000000000002 21.999999999999996
    vertex 135.0 22.999999999999996 21.999999999999996
    vertex 135.0 13.000000000000002 21.999999999999996
  endloop
endfacet
facet normal 0.0 0.0 1.0
  outer loop
    vertex 135.0 22.999999999999996 21.999999999999996
    vertex 137.0 13.000000000000002 21.999999999999996
    vertex 137.0 22.999999999999996 21.999999999999996
  endloop
endfacet
facet normal -0.7933533402912517 -0.6087614290086991 -0.0
  outer loop
    vertex 131.20096189432334 56.75000000000002 50.0
    vertex 131.43933982822017 56.43933982822019 1.9999999999999991
    vertex 131.43933982822017 56.43933982822019 50.0
  endloop
endfacet
facet normal -0.7933533402912517 -0.6087614290086991 -0.0
  outer loop
    vertex 131.43933982822017 56.43933982822019 1.9999999999999991
    vertex 131.20096189432334 56.75000000000002 50.0
    vertex 131.20096189432334 56.75000000000002 1.9999999999999991
  endloop
endfacet
facet normal -0.9238795325112803 -0.3826834323651054 -0.0
  outer loop
    vertex 131.05111126056642 57.11177143234624 50.0
    vertex 131.20096189432334 56.75000000000002 1.9999999999999991
    vertex 131.20096189432334 56.75000000000002 50.0
  endloop
endfacet
facet normal -0.9238795325112803 -0.3826834323651054 -0.0
  outer loop
    vertex 131.20096189432334 56.75000000000002 1.9999999999999991
    vertex 131.05111126056642 57.11177143234624 50.0
    vertex 131.05111126056642 57.11177143234624 1.9999999999999991
  endloop
endfacet
facet normal -0.9914448613738113 -0.13052619222004555 -0.0
  outer loop
    vertex 131.0 57.50000000000002 50.0
    vertex 131.05111126056642 57.11177143234624 1.9999999999999991
    vertex 131.05111126056642 57.11177143234624 50.0
  endloop
endfacet
facet normal -0.9914448613738113 -0.13052619222004555 -0.0
  outer loop
    vertex 131.05111126056642 57.11177143234624 1.9999999999999991
    vertex 131.0 57.50000000000002 50.0
    vertex 131.0 57.50000000000002 1.9999999999999991
  endloop
endfacet
facet normal 0.13052619222004555 -0.9914448613738113 0.0
  outer loop
    vertex 132.88822856765378 56.051111260566415 50.0
    vertex 132.5 56.00000000000002 1.9999999999999991
    vertex 132.88822856765378 56.051111260566415 1.9999999999999991
  endloop
endfacet
facet normal 0.13052619222004555 -0.9914448613738113 0.0
  outer loop
    vertex 132.5 56.00000000000002 1.9999999999999991
    vertex 132.88822856765378 56.051111260566415 50.0
    vertex 132.5 56.00000000000002 50.0
  endloop
endfacet
facet normal -0.9914448613738113 0.13052619222004555 0.0
  outer loop
    vertex 131.05111126056642 57.8882285676538 50.0
    vertex 131.0 57.50000000000002 1.9999999999999991
    vertex 131.0 57.50000000000002 50.0
  endloop
endfacet
facet normal -0.9914448613738113 0.13052619222004555 0.0
  outer loop
    vertex 131.0 57.50000000000002 1.9999999999999991
    vertex 131.05111126056642 57.8882285676538 50.0
    vertex 131.05111126056642 57.8882285676538 1.9999999999999991
  endloop
endfacet
facet normal -0.9238795325112803 0.3826834323651054 0.0
  outer loop
    vertex 131.20096189432334 58.250000000000014 50.0
    vertex 131.05111126056642 57.8882285676538 1.9999999999999991
    vertex 131.05111126056642 57.8882285676538 50.0
  endloop
endfacet
facet normal -0.9238795325112803 0.3826834323651054 0.0
  outer loop
    vertex 131.05111126056642 57.8882285676538 1.9999999999999991
    vertex 131.20096189432334 58.250000000000014 50.0
    vertex 131.20096189432334 58.250000000000014 1.9999999999999991
  endloop
endfacet
facet normal 1.0 0.0 0.0
  outer loop
    vertex 137.0 -1.9999999999999962 0.0
    vertex 137.0 13.000000000000002 21.999999999999996
    vertex 137.0 -1.9999999999999962 39.99999999999999
  endloop
endfacet
facet normal 1.0 0.0 0.0
  outer loop
    vertex 137.0 13.000000000000002 21.999999999999996
    vertex 137.0 -1.9999999999999962 0.0
    vertex 137.0 62.00000000000001 0.0
  endloop
endfacet
facet normal 1.0 0.0 0.0
  outer loop
    vertex 137.0 13.000000000000002 21.999999999999996
    vertex 137.0 62.00000000000001 0.0
    vertex 137.0 22.999999999999996 21.999999999999996
  endloop
endfacet
facet normal 1.0 0.0 0.0
  outer loop
    vertex 137.0 22.999999999999996 21.999999999999996
    vertex 137.0 62.00000000000001 0.0
    vertex 137.0 32.99999999999999 20.999999999999996
  endloop
endfacet
facet normal 1.0 0.0 0.0
  outer loop
    vertex 137.0 22.999999999999996 21.999999999999996
    vertex 137.0 32.99999999999999 20.999999999999996
    vertex 137.0 22.999999999999996 39.99999999999999
  endloop
endfacet
facet normal 1.0 0.0 0.0
  outer loop
    vertex 137.0 32.99999999999999 20.999999999999996
    vertex 137.0 62.00000000000001 0.0
    vertex 137.0 48.0 20.999999999999996
  endloop
endfacet
facet normal 1.0 0.0 0.0
  outer loop
    vertex 137.0 48.0 20.999999999999996
    vertex 137.0 62.00000000000001 0.0
    vertex 137.0 48.0 39.99999999999999
  endloop
endfacet
facet normal 1.0 0.0 0.0
  outer loop
    vertex 137.0 48.0 39.99999999999999
    vertex 137.0 62.00000000000001 0.0
    vertex 137.0 62.00000000000001 39.99999999999999
  endloop
endfacet
facet normal 1.0 0.0 0.0
  outer loop
    vertex 137.0 32.99999999999999 39.99999999999999
    vertex 137.0 22.999999999999996 39.99999999999999
    vertex 137.0 32.99999999999999 20.999999999999996
  endloop
endfacet
facet normal 1.0 0.0 0.0
  outer loop
    vertex 137.0 13.000000000000002 39.99999999999999
    vertex 137.0 -1.9999999999999962 39.99999999999999
    vertex 137.0 13.000000000000002 21.999999999999996
  endloop
endfacet
facet normal 1.0 -6.527700191083094e-18 1.6978258449867206e-17
  outer loop
    vertex 3.524958103184872e-16 60.000000000000014 1.9999999999999998
    vertex -7.049916206369744e-16 6.0 42.00000000000001
    vertex 0.0 6.0 1.9999999999999998
  endloop
endfacet
facet normal 1.0 -6.527700191083094e-18 1.6978258449867206e-17
  outer loop
    vertex -7.049916206369744e-16 6.0 42.00000000000001
    vertex 3.524958103184872e-16 60.000000000000014 1.9999999999999998
    vertex -3.524958103184872e-16 60.000000000000014 42.00000000000001
  endloop
endfacet
facet normal -0.7933533402912517 0.6087614290086991 0.0
  outer loop
    vertex 131.43933982822017 58.560660171779844 50.0
    vertex 131.20096189432334 58.250000000000014 1.9999999999999991
    vertex 131.20096189432334 58.250000000000014 50.0
  endloop
endfacet
facet normal -0.7933533402912517 0.6087614290086991 0.0
  outer loop
    vertex 131.20096189432334 58.250000000000014 1.9999999999999991
    vertex 131.43933982822017 58.560660171779844 50.0
    vertex 131.43933982822017 58.560660171779844 1.9999999999999991
  endloop
endfacet
facet normal -0.13052619222004555 -0.9914448613738113 -0.0
  outer loop
    vertex 132.5 56.00000000000002 50.0
    vertex 132.11177143234622 56.051111260566415 1.9999999999999991
    vertex 132.5 56.00000000000002 1.9999999999999991
  endloop
endfacet
facet normal -0.13052619222004555 -0.9914448613738113 -0.0
  outer loop
    vertex 132.11177143234622 56.051111260566415 1.9999999999999991
    vertex 132.5 56.00000000000002 50.0
    vertex 132.11177143234622 56.051111260566415 50.0
  endloop
endfacet
facet normal -0.6087614290087131 0.7933533402912412 0.0
  outer loop
    vertex 131.43933982822017 58.560660171779844 50.0
    vertex 131.75 58.79903810567667 1.9999999999999991
    vertex 131.43933982822017 58.560660171779844 1.9999999999999991
  endloop
endfacet
facet normal -0.6087614290087131 0.7933533402912412 0.0
  outer loop
    vertex 131.75 58.79903810567667 1.9999999999999991
    vertex 131.43933982822017 58.560660171779844 50.0
    vertex 131.75 58.79903810567667 50.0
  endloop
endfacet
facet normal -1.0 -0.0 -1.6978258449867206e-17
  outer loop
    vertex -0.7172288745194032 -0.6968376723137393 42.00000000000001
    vertex -0.7172288745194026 61.000000000000014 39.99999999999999
    vertex -0.7172288745194026 -0.6968376723137395 39.99999999999999
  endloop
endfacet
facet normal -1.0 -0.0 -1.6978258449867206e-17
  outer loop
    vertex -0.7172288745194026 61.000000000000014 39.99999999999999
    vertex -0.7172288745194032 -0.6968376723137393 42.00000000000001
    vertex -0.7172288745194032 61.000000000000014 42.00000000000001
  endloop
endfacet
facet normal 0.3826834323650952 -0.9238795325112845 0.0
  outer loop
    vertex 133.25000000000003 56.20096189432337 50.0
    vertex 132.88822856765378 56.051111260566415 1.9999999999999991
    vertex 133.25000000000003 56.20096189432337 1.9999999999999991
  endloop
endfacet
facet normal 0.3826834323650952 -0.9238795325112845 0.0
  outer loop
    vertex 132.88822856765378 56.051111260566415 1.9999999999999991
    vertex 133.25000000000003 56.20096189432337 50.0
    vertex 132.88822856765378 56.051111260566415 50.0
  endloop
endfacet
endsolid gehäuse meerie light
