solid gehäuse meerie light
facet normal 0.0 1.0 0.0
  outer loop
    vertex -0.07045787904954891 -35.16047327536448 0.012468373460942296
    vertex 140.92954212095043 -35.16047327536448 14.012468373460937
    vertex 140.92954212095043 -35.16047327536448 0.01246837346094212
  endloop
endfacet
facet normal 0.0 1.0 0.0
  outer loop
    vertex 140.92954212095043 -35.16047327536448 14.012468373460937
    vertex -0.07045787904954891 -35.16047327536448 0.012468373460942296
    vertex -0.07045787904954891 -35.16047327536448 14.012468373460942
  endloop
endfacet
facet normal 1.0 0.0 0.0
  outer loop
    vertex 140.92954212095043 -35.16047327536448 0.01246837346094212
    vertex 140.92954212095043 -101.16047327536448 14.012468373460942
    vertex 140.92954212095043 -101.16047327536448 0.01246837346094212
  endloop
endfacet
facet normal 1.0 0.0 0.0
  outer loop
    vertex 140.92954212095043 -101.16047327536448 14.012468373460942
    vertex 140.92954212095043 -35.16047327536448 0.01246837346094212
    vertex 140.92954212095043 -35.16047327536448 14.012468373460937
  endloop
endfacet
facet normal -1.0 1.5012598395165552e-18 5.1243002522165097e-17
  outer loop
    vertex -0.07045787904954891 -35.16047327536448 14.012468373460942
    vertex -0.07045787904954891 -101.16047327536448 0.012468373460942296
    vertex -0.07045787904954891 -101.16047327536448 14.012468373460942
  endloop
endfacet
facet normal -1.0 1.5012598395165552e-18 5.1243002522165097e-17
  outer loop
    vertex -0.07045787904954891 -101.16047327536448 0.012468373460942296
    vertex -0.07045787904954891 -35.16047327536448 14.012468373460942
    vertex -0.07045787904954891 -35.16047327536448 0.012468373460942296
  endloop
endfacet
facet normal -1.2595234092465397e-05 2.8018418348626274e-05 -0.9999999995281643
  outer loop
    vertex 140.92954212095043 -35.16047327536448 0.01246837346094212
    vertex -0.07045787904954891 -101.16047327536448 0.012468373460942296
    vertex -0.07045787904954891 -35.16047327536448 0.012468373460942296
  endloop
endfacet
facet normal -1.2595234092465397e-05 2.8018418348626274e-05 -0.9999999995281643
  outer loop
    vertex -0.07045787904954891 -101.16047327536448 0.012468373460942296
    vertex 140.92954212095043 -35.16047327536448 0.01246837346094212
    vertex 140.92954212095043 -101.16047327536448 0.01246837346094212
  endloop
endfacet
facet normal 3.6630413482907286e-17 1.3673837371398196e-17 1.0
  outer loop
    vertex -0.07045787904954891 -101.16047327536448 14.012468373460942
    vertex 1.172294806810481 -100.16047327536447 14.012468373460948
    vertex -0.07045787904954891 -35.16047327536448 14.012468373460942
  endloop
endfacet
facet normal 3.6630413482907286e-17 1.3673837371398196e-17 1.0
  outer loop
    vertex 1.172294806810481 -100.16047327536447 14.012468373460948
    vertex -0.07045787904954891 -101.16047327536448 14.012468373460942
    vertex 140.92954212095043 -101.16047327536448 14.012468373460942
  endloop
endfacet
facet normal 3.6630413482907286e-17 1.3673837371398196e-17 1.0
  outer loop
    vertex 1.172294806810481 -100.16047327536447 14.012468373460948
    vertex 140.92954212095043 -101.16047327536448 14.012468373460942
    vertex 139.92954212095046 -100.16047327536447 14.012468373460937
  endloop
endfacet
facet normal 3.6630413482907286e-17 1.3673837371398196e-17 1.0
  outer loop
    vertex 139.92954212095046 -100.16047327536447 14.012468373460937
    vertex 140.92954212095043 -101.16047327536448 14.012468373460942
    vertex 139.92954212095046 -36.16047327536448 14.012468373460937
  endloop
endfacet
facet normal 3.6630413482907286e-17 1.3673837371398196e-17 1.0
  outer loop
    vertex -0.07045787904954891 -35.16047327536448 14.012468373460942
    vertex 1.172294806810481 -36.16047327536448 14.012468373460948
    vertex 140.92954212095043 -35.16047327536448 14.012468373460937
  endloop
endfacet
facet normal 3.6630413482907286e-17 1.3673837371398196e-17 1.0
  outer loop
    vertex 1.172294806810481 -36.16047327536448 14.012468373460948
    vertex -0.07045787904954891 -35.16047327536448 14.012468373460942
    vertex 1.172294806810481 -100.16047327536447 14.012468373460948
  endloop
endfacet
facet normal 3.6630413482907286e-17 1.3673837371398196e-17 1.0
  outer loop
    vertex 140.92954212095043 -35.16047327536448 14.012468373460937
    vertex 1.172294806810481 -36.16047327536448 14.012468373460948
    vertex 139.92954212095046 -36.16047327536448 14.012468373460937
  endloop
endfacet
facet normal 3.6630413482907286e-17 1.3673837371398196e-17 1.0
  outer loop
    vertex 140.92954212095043 -35.16047327536448 14.012468373460937
    vertex 139.92954212095046 -36.16047327536448 14.012468373460937
    vertex 140.92954212095043 -101.16047327536448 14.012468373460942
  endloop
endfacet
facet normal 0.0 0.0 1.0
  outer loop
    vertex 136.92954212095046 -97.1604732753645 2.012468373460942
    vertex 133.92954212095046 -94.1604732753645 2.012468373460942
    vertex 133.92954212095046 -97.1604732753645 2.012468373460942
  endloop
endfacet
facet normal 0.0 0.0 1.0
  outer loop
    vertex 133.92954212095046 -94.1604732753645 2.012468373460942
    vertex 136.92954212095046 -97.1604732753645 2.012468373460942
    vertex 136.92954212095046 -94.1604732753645 2.012468373460942
  endloop
endfacet
facet normal 6.186070291551549e-17 0.0 1.0
  outer loop
    vertex 1.172294806810481 -100.16047327536447 12.012468373460944
    vertex 2.9295421209504506 -98.1604732753645 12.012468373460939
    vertex 1.172294806810481 -36.16047327536448 12.012468373460944
  endloop
endfacet
facet normal 6.186070291551549e-17 0.0 1.0
  outer loop
    vertex 2.9295421209504506 -98.1604732753645 12.012468373460939
    vertex 1.172294806810481 -100.16047327536447 12.012468373460944
    vertex 139.92954212095046 -100.16047327536447 12.012468373460935
  endloop
endfacet
facet normal 6.186070291551549e-17 0.0 1.0
  outer loop
    vertex 2.9295421209504506 -98.1604732753645 12.012468373460939
    vertex 139.92954212095046 -100.16047327536447 12.012468373460935
    vertex 132.92954212095046 -98.1604732753645 12.012468373460939
  endloop
endfacet
facet normal 6.186070291551549e-17 0.0 1.0
  outer loop
    vertex 132.92954212095046 -98.1604732753645 12.012468373460939
    vertex 139.92954212095046 -100.16047327536447 12.012468373460935
    vertex 133.92954212095046 -97.1604732753645 12.012468373460939
  endloop
endfacet
facet normal 6.186070291551549e-17 0.0 1.0
  outer loop
    vertex 132.92954212095046 -98.1604732753645 12.012468373460939
    vertex 133.92954212095046 -97.1604732753645 12.012468373460939
    vertex 132.92954212095046 -93.1604732753645 12.012468373460939
  endloop
endfacet
facet normal 6.186070291551549e-17 0.0 1.0
  outer loop
    vertex 133.92954212095046 -97.1604732753645 12.012468373460939
    vertex 139.92954212095046 -100.16047327536447 12.012468373460935
    vertex 136.92954212095046 -97.1604732753645 12.012468373460939
  endloop
endfacet
facet normal 6.186070291551549e-17 0.0 1.0
  outer loop
    vertex 136.92954212095046 -97.1604732753645 12.012468373460939
    vertex 139.92954212095046 -100.16047327536447 12.012468373460935
    vertex 136.92954212095046 -94.1604732753645 12.012468373460939
  endloop
endfacet
facet normal 6.186070291551549e-17 0.0 1.0
  outer loop
    vertex 136.92954212095046 -94.1604732753645 12.012468373460939
    vertex 139.92954212095046 -100.16047327536447 12.012468373460935
    vertex 137.92954212095046 -93.1604732753645 12.012468373460939
  endloop
endfacet
facet normal 6.186070291551549e-17 0.0 1.0
  outer loop
    vertex 137.92954212095046 -93.1604732753645 12.012468373460939
    vertex 139.92954212095046 -100.16047327536447 12.012468373460935
    vertex 137.92954212095046 -38.160473275364474 12.012468373460939
  endloop
endfacet
facet normal 6.186070291551549e-17 0.0 1.0
  outer loop
    vertex 1.172294806810481 -36.16047327536448 12.012468373460944
    vertex 2.929542120950451 -38.160473275364474 12.012468373460939
    vertex 139.92954212095046 -36.16047327536448 12.012468373460935
  endloop
endfacet
facet normal 6.186070291551549e-17 0.0 1.0
  outer loop
    vertex 2.929542120950451 -38.160473275364474 12.012468373460939
    vertex 1.172294806810481 -36.16047327536448 12.012468373460944
    vertex 2.9295421209504506 -98.1604732753645 12.012468373460939
  endloop
endfacet
facet normal 6.186070291551549e-17 0.0 1.0
  outer loop
    vertex 139.92954212095046 -36.16047327536448 12.012468373460935
    vertex 2.929542120950451 -38.160473275364474 12.012468373460939
    vertex 137.92954212095046 -38.160473275364474 12.012468373460939
  endloop
endfacet
facet normal 6.186070291551549e-17 0.0 1.0
  outer loop
    vertex 139.92954212095046 -36.16047327536448 12.012468373460935
    vertex 137.92954212095046 -38.160473275364474 12.012468373460939
    vertex 139.92954212095046 -100.16047327536447 12.012468373460935
  endloop
endfacet
facet normal 6.186070291551549e-17 0.0 1.0
  outer loop
    vertex 132.92954212095046 -93.1604732753645 12.012468373460939
    vertex 133.92954212095046 -94.1604732753645 12.012468373460939
    vertex 137.92954212095046 -93.1604732753645 12.012468373460939
  endloop
endfacet
facet normal 6.186070291551549e-17 0.0 1.0
  outer loop
    vertex 133.92954212095046 -94.1604732753645 12.012468373460939
    vertex 132.92954212095046 -93.1604732753645 12.012468373460939
    vertex 133.92954212095046 -97.1604732753645 12.012468373460939
  endloop
endfacet
facet normal 6.186070291551549e-17 0.0 1.0
  outer loop
    vertex 137.92954212095046 -93.1604732753645 12.012468373460939
    vertex 133.92954212095046 -94.1604732753645 12.012468373460939
    vertex 136.92954212095046 -94.1604732753645 12.012468373460939
  endloop
endfacet
facet normal 1.0 0.0 -6.186070291551549e-17
  outer loop
    vertex 1.172294806810481 -36.16047327536448 12.012468373460944
    vertex 1.172294806810481 -100.16047327536447 14.012468373460948
    vertex 1.172294806810481 -100.16047327536447 12.012468373460944
  endloop
endfacet
facet normal 1.0 0.0 -6.186070291551549e-17
  outer loop
    vertex 1.172294806810481 -100.16047327536447 14.012468373460948
    vertex 1.172294806810481 -36.16047327536448 12.012468373460944
    vertex 1.172294806810481 -36.16047327536448 14.012468373460948
  endloop
endfacet
facet normal 0.0 1.0 0.0
  outer loop
    vertex 1.172294806810481 -100.16047327536447 12.012468373460944
    vertex 139.92954212095046 -100.16047327536447 14.012468373460937
    vertex 139.92954212095046 -100.16047327536447 12.012468373460935
  endloop
endfacet
facet normal 0.0 1.0 0.0
  outer loop
    vertex 139.92954212095046 -100.16047327536447 14.012468373460937
    vertex 1.172294806810481 -100.16047327536447 12.012468373460944
    vertex 1.172294806810481 -100.16047327536447 14.012468373460948
  endloop
endfacet
facet normal -1.0 0.0 6.186070291551549e-17
  outer loop
    vertex 139.92954212095046 -36.16047327536448 14.012468373460937
    vertex 139.92954212095046 -100.16047327536447 12.012468373460935
    vertex 139.92954212095046 -100.16047327536447 14.012468373460937
  endloop
endfacet
facet normal -1.0 0.0 6.186070291551549e-17
  outer loop
    vertex 139.92954212095046 -100.16047327536447 12.012468373460935
    vertex 139.92954212095046 -36.16047327536448 14.012468373460937
    vertex 139.92954212095046 -36.16047327536448 12.012468373460935
  endloop
endfacet
facet normal -0.0 -1.0 -0.0
  outer loop
    vertex 139.92954212095046 -36.16047327536448 14.012468373460937
    vertex 1.172294806810481 -36.16047327536448 12.012468373460944
    vertex 139.92954212095046 -36.16047327536448 12.012468373460935
  endloop
endfacet
facet normal -0.0 -1.0 -0.0
  outer loop
    vertex 1.172294806810481 -36.16047327536448 12.012468373460944
    vertex 139.92954212095046 -36.16047327536448 14.012468373460937
    vertex 1.172294806810481 -36.16047327536448 14.012468373460948
  endloop
endfacet
facet normal 1.0 0.0 -6.186070291551549e-17
  outer loop
    vertex 133.92954212095046 -94.1604732753645 2.012468373460942
    vertex 133.92954212095046 -97.1604732753645 12.012468373460939
    vertex 133.92954212095046 -97.1604732753645 2.012468373460942
  endloop
endfacet
facet normal 1.0 0.0 -6.186070291551549e-17
  outer loop
    vertex 133.92954212095046 -97.1604732753645 12.012468373460939
    vertex 133.92954212095046 -94.1604732753645 2.012468373460942
    vertex 133.92954212095046 -94.1604732753645 12.012468373460939
  endloop
endfacet
facet normal 0.0 -1.0 0.0
  outer loop
    vertex 136.92954212095046 -94.1604732753645 12.012468373460939
    vertex 133.92954212095046 -94.1604732753645 2.012468373460942
    vertex 136.92954212095046 -94.1604732753645 2.012468373460942
  endloop
endfacet
facet normal 0.0 -1.0 0.0
  outer loop
    vertex 133.92954212095046 -94.1604732753645 2.012468373460942
    vertex 136.92954212095046 -94.1604732753645 12.012468373460939
    vertex 133.92954212095046 -94.1604732753645 12.012468373460939
  endloop
endfacet
facet normal -1.0 0.0 6.186070291551549e-17
  outer loop
    vertex 136.92954212095046 -94.1604732753645 12.012468373460939
    vertex 136.92954212095046 -97.1604732753645 2.012468373460942
    vertex 136.92954212095046 -97.1604732753645 12.012468373460939
  endloop
endfacet
facet normal -1.0 0.0 6.186070291551549e-17
  outer loop
    vertex 136.92954212095046 -97.1604732753645 2.012468373460942
    vertex 136.92954212095046 -94.1604732753645 12.012468373460939
    vertex 136.92954212095046 -94.1604732753645 2.012468373460942
  endloop
endfacet
facet normal 0.0 1.0 0.0
  outer loop
    vertex 133.92954212095046 -97.1604732753645 12.012468373460939
    vertex 136.92954212095046 -97.1604732753645 2.012468373460942
    vertex 133.92954212095046 -97.1604732753645 2.012468373460942
  endloop
endfacet
facet normal 0.0 1.0 0.0
  outer loop
    vertex 136.92954212095046 -97.1604732753645 2.012468373460942
    vertex 133.92954212095046 -97.1604732753645 12.012468373460939
    vertex 136.92954212095046 -97.1604732753645 12.012468373460939
  endloop
endfacet
facet normal 0.0 1.0 0.0
  outer loop
    vertex 2.9295421209504506 -98.1604732753645 12.012468373460939
    vertex 132.92954212095046 -98.1604732753645 2.012468373460942
    vertex 2.9295421209504506 -98.1604732753645 2.012468373460942
  endloop
endfacet
facet normal 0.0 1.0 0.0
  outer loop
    vertex 132.92954212095046 -98.1604732753645 2.012468373460942
    vertex 2.9295421209504506 -98.1604732753645 12.012468373460939
    vertex 132.92954212095046 -98.1604732753645 12.012468373460939
  endloop
endfacet
facet normal 1.0 -6.055911433196758e-18 -9.631577057633715e-49
  outer loop
    vertex 2.929542120950451 -38.160473275364474 2.012468373460942
    vertex 2.9295421209504506 -98.1604732753645 12.012468373460939
    vertex 2.9295421209504506 -98.1604732753645 2.012468373460942
  endloop
endfacet
facet normal 1.0 -6.055911433196758e-18 -9.631577057633715e-49
  outer loop
    vertex 2.9295421209504506 -98.1604732753645 12.012468373460939
    vertex 2.929542120950451 -38.160473275364474 2.012468373460942
    vertex 2.929542120950451 -38.160473275364474 12.012468373460939
  endloop
endfacet
facet normal 0.0 -1.0 0.0
  outer loop
    vertex 137.92954212095046 -38.160473275364474 12.012468373460939
    vertex 2.929542120950451 -38.160473275364474 2.012468373460942
    vertex 137.92954212095046 -38.160473275364474 2.012468373460942
  endloop
endfacet
facet normal 0.0 -1.0 0.0
  outer loop
    vertex 2.929542120950451 -38.160473275364474 2.012468373460942
    vertex 137.92954212095046 -38.160473275364474 12.012468373460939
    vertex 2.929542120950451 -38.160473275364474 12.012468373460939
  endloop
endfacet
facet normal -1.0 0.0 6.186070291551549e-17
  outer loop
    vertex 137.92954212095046 -38.160473275364474 12.012468373460939
    vertex 137.92954212095046 -93.1604732753645 2.012468373460942
    vertex 137.92954212095046 -93.1604732753645 12.012468373460939
  endloop
endfacet
facet normal -1.0 0.0 6.186070291551549e-17
  outer loop
    vertex 137.92954212095046 -93.1604732753645 2.012468373460942
    vertex 137.92954212095046 -38.160473275364474 12.012468373460939
    vertex 137.92954212095046 -38.160473275364474 2.012468373460942
  endloop
endfacet
facet normal 0.0 1.0 0.0
  outer loop
    vertex 132.92954212095046 -93.1604732753645 12.012468373460939
    vertex 137.92954212095046 -93.1604732753645 2.012468373460942
    vertex 132.92954212095046 -93.1604732753645 2.012468373460942
  endloop
endfacet
facet normal 0.0 1.0 0.0
  outer loop
    vertex 137.92954212095046 -93.1604732753645 2.012468373460942
    vertex 132.92954212095046 -93.1604732753645 12.012468373460939
    vertex 137.92954212095046 -93.1604732753645 12.012468373460939
  endloop
endfacet
facet normal -1.0 0.0 6.186070291551549e-17
  outer loop
    vertex 132.92954212095046 -93.1604732753645 12.012468373460939
    vertex 132.92954212095046 -98.1604732753645 2.012468373460942
    vertex 132.92954212095046 -98.1604732753645 12.012468373460939
  endloop
endfacet
facet normal -1.0 0.0 6.186070291551549e-17
  outer loop
    vertex 132.92954212095046 -98.1604732753645 2.012468373460942
    vertex 132.92954212095046 -93.1604732753645 12.012468373460939
    vertex 132.92954212095046 -93.1604732753645 2.012468373460942
  endloop
endfacet
facet normal 0.0 0.0 1.0
  outer loop
    vertex 3.9806533815168432 -41.048701843018264 -0.9875316265390599
    vertex 3.9806533815168432 -40.27224470771068 -0.9875316265390599
    vertex 3.9295421209504457 -40.660473275364474 -0.9875316265390599
  endloop
endfacet
facet normal 0.0 0.0 1.0
  outer loop
    vertex 3.9806533815168432 -40.27224470771068 -0.9875316265390599
    vertex 3.9806533815168432 -41.048701843018264 -0.9875316265390599
    vertex 4.130504015273789 -41.41047327536447 -0.9875316265390599
  endloop
endfacet
facet normal 0.0 0.0 1.0
  outer loop
    vertex 3.9806533815168432 -40.27224470771068 -0.9875316265390599
    vertex 4.130504015273789 -41.41047327536447 -0.9875316265390599
    vertex 4.130504015273789 -39.910473275364474 -0.9875316265390599
  endloop
endfacet
facet normal 0.0 0.0 1.0
  outer loop
    vertex 4.130504015273789 -39.910473275364474 -0.9875316265390599
    vertex 4.130504015273789 -41.41047327536447 -0.9875316265390599
    vertex 4.368881949170626 -41.7211334471443 -0.9875316265390599
  endloop
endfacet
facet normal 0.0 0.0 1.0
  outer loop
    vertex 4.130504015273789 -39.910473275364474 -0.9875316265390599
    vertex 4.368881949170626 -41.7211334471443 -0.9875316265390599
    vertex 4.368881949170626 -39.59981310358465 -0.9875316265390599
  endloop
endfacet
facet normal 0.0 0.0 1.0
  outer loop
    vertex 4.368881949170626 -39.59981310358465 -0.9875316265390599
    vertex 4.368881949170626 -41.7211334471443 -0.9875316265390599
    vertex 4.679542120950447 -41.95951138104113 -0.9875316265390599
  endloop
endfacet
facet normal 0.0 0.0 1.0
  outer loop
    vertex 4.368881949170626 -39.59981310358465 -0.9875316265390599
    vertex 4.679542120950447 -41.95951138104113 -0.9875316265390599
    vertex 4.679542120950447 -39.36143516968781 -0.9875316265390599
  endloop
endfacet
facet normal 0.0 0.0 1.0
  outer loop
    vertex 4.679542120950447 -39.36143516968781 -0.9875316265390599
    vertex 4.679542120950447 -41.95951138104113 -0.9875316265390599
    vertex 5.041313553296667 -42.10936201479807 -0.9875316265390599
  endloop
endfacet
facet normal 0.0 0.0 1.0
  outer loop
    vertex 4.679542120950447 -39.36143516968781 -0.9875316265390599
    vertex 5.041313553296667 -42.10936201479807 -0.9875316265390599
    vertex 5.041313553296667 -39.21158453593087 -0.9875316265390599
  endloop
endfacet
facet normal 0.0 0.0 1.0
  outer loop
    vertex 5.041313553296667 -39.21158453593087 -0.9875316265390599
    vertex 5.041313553296667 -42.10936201479807 -0.9875316265390599
    vertex 5.429542120950448 -42.16047327536448 -0.9875316265390599
  endloop
endfacet
facet normal 0.0 0.0 1.0
  outer loop
    vertex 5.041313553296667 -39.21158453593087 -0.9875316265390599
    vertex 5.429542120950448 -42.16047327536448 -0.9875316265390599
    vertex 5.429542120950448 -39.16047327536446 -0.9875316265390599
  endloop
endfacet
facet normal 0.0 0.0 1.0
  outer loop
    vertex 5.429542120950448 -39.16047327536446 -0.9875316265390599
    vertex 5.429542120950448 -42.16047327536448 -0.9875316265390599
    vertex 5.817770688604231 -42.10936201479807 -0.9875316265390599
  endloop
endfacet
facet normal 0.0 0.0 1.0
  outer loop
    vertex 5.429542120950448 -39.16047327536446 -0.9875316265390599
    vertex 5.817770688604231 -42.10936201479807 -0.9875316265390599
    vertex 5.81777068860423 -39.21158453593087 -0.9875316265390599
  endloop
endfacet
facet normal 0.0 0.0 1.0
  outer loop
    vertex 5.81777068860423 -39.21158453593087 -0.9875316265390599
    vertex 5.817770688604231 -42.10936201479807 -0.9875316265390599
    vertex 6.17954212095045 -39.36143516968781 -0.9875316265390599
  endloop
endfacet
facet normal 0.0 0.0 1.0
  outer loop
    vertex 6.17954212095045 -39.36143516968781 -0.9875316265390599
    vertex 5.817770688604231 -42.10936201479807 -0.9875316265390599
    vertex 6.179542120950451 -41.95951138104113 -0.9875316265390599
  endloop
endfacet
facet normal 0.0 0.0 1.0
  outer loop
    vertex 6.17954212095045 -39.36143516968781 -0.9875316265390599
    vertex 6.179542120950451 -41.95951138104113 -0.9875316265390599
    vertex 6.490202292730271 -39.59981310358465 -0.9875316265390599
  endloop
endfacet
facet normal 0.0 0.0 1.0
  outer loop
    vertex 6.490202292730271 -39.59981310358465 -0.9875316265390599
    vertex 6.179542120950451 -41.95951138104113 -0.9875316265390599
    vertex 6.490202292730272 -41.7211334471443 -0.9875316265390599
  endloop
endfacet
facet normal 0.0 0.0 1.0
  outer loop
    vertex 6.490202292730271 -39.59981310358465 -0.9875316265390599
    vertex 6.490202292730272 -41.7211334471443 -0.9875316265390599
    vertex 6.728580226627108 -39.910473275364474 -0.9875316265390599
  endloop
endfacet
facet normal 0.0 0.0 1.0
  outer loop
    vertex 6.728580226627108 -39.910473275364474 -0.9875316265390599
    vertex 6.490202292730272 -41.7211334471443 -0.9875316265390599
    vertex 6.72858022662711 -41.41047327536447 -0.9875316265390599
  endloop
endfacet
facet normal 0.0 0.0 1.0
  outer loop
    vertex 6.728580226627108 -39.910473275364474 -0.9875316265390599
    vertex 6.72858022662711 -41.41047327536447 -0.9875316265390599
    vertex 6.878430860384054 -40.27224470771068 -0.9875316265390599
  endloop
endfacet
facet normal 0.0 0.0 1.0
  outer loop
    vertex 6.878430860384054 -40.27224470771068 -0.9875316265390599
    vertex 6.72858022662711 -41.41047327536447 -0.9875316265390599
    vertex 6.878430860384054 -41.04870184301825 -0.9875316265390599
  endloop
endfacet
facet normal 0.0 0.0 1.0
  outer loop
    vertex 6.878430860384054 -40.27224470771068 -0.9875316265390599
    vertex 6.878430860384054 -41.04870184301825 -0.9875316265390599
    vertex 6.929542120950451 -40.660473275364474 -0.9875316265390599
  endloop
endfacet
facet normal 0.0 0.0 1.0
  outer loop
    vertex 132.92954212095046 -98.1604732753645 2.012468373460942
    vertex 2.929542120950451 -38.160473275364474 2.012468373460942
    vertex 2.9295421209504506 -98.1604732753645 2.012468373460942
  endloop
endfacet
facet normal 0.0 0.0 1.0
  outer loop
    vertex 2.929542120950451 -38.160473275364474 2.012468373460942
    vertex 132.92954212095046 -98.1604732753645 2.012468373460942
    vertex 132.92954212095046 -93.1604732753645 2.012468373460942
  endloop
endfacet
facet normal 0.0 0.0 1.0
  outer loop
    vertex 2.929542120950451 -38.160473275364474 2.012468373460942
    vertex 132.92954212095046 -93.1604732753645 2.012468373460942
    vertex 137.92954212095046 -38.160473275364474 2.012468373460942
  endloop
endfacet
facet normal 0.0 0.0 1.0
  outer loop
    vertex 137.92954212095046 -38.160473275364474 2.012468373460942
    vertex 132.92954212095046 -93.1604732753645 2.012468373460942
    vertex 137.92954212095046 -93.1604732753645 2.012468373460942
  endloop
endfacet
facet normal 0.0 -1.0 0.0
  outer loop
    vertex 140.92954212095043 -101.16047327536448 14.012468373460942
    vertex -0.07045787904954891 -101.16047327536448 0.012468373460942296
    vertex 140.92954212095043 -101.16047327536448 0.01246837346094212
  endloop
endfacet
facet normal 0.0 -1.0 0.0
  outer loop
    vertex -0.07045787904954891 -101.16047327536448 0.012468373460942296
    vertex 140.92954212095043 -101.16047327536448 14.012468373460942
    vertex -0.07045787904954891 -101.16047327536448 14.012468373460942
  endloop
endfacet
endsolid gehäuse meerie light
